<svg xmlns="http://www.w3.org/2000/svg" xmlns:xlink="http://www.w3.org/1999/xlink" width="1080" zoomAndPan="magnify" viewBox="0 0 810 809.999993" height="1080" preserveAspectRatio="xMidYMid meet" version="1.0"><defs><filter x="0%" y="0%" width="100%" height="100%" id="23ed079c1a"><feColorMatrix values="0 0 0 0 1 0 0 0 0 1 0 0 0 0 1 0 0 0 1 0" color-interpolation-filters="sRGB"/></filter><g/><clipPath id="c7a2c9afc5"><path d="M 59 41 L 641 41 L 641 314.320312 L 59 314.320312 Z M 59 41 " clip-rule="nonzero"/></clipPath><clipPath id="a271c2697b"><rect x="0" width="582" y="0" height="274"/></clipPath><clipPath id="5b8b4cf95a"><rect x="0" width="173" y="0" height="90"/></clipPath><clipPath id="c5a81e375e"><path d="M 529 275 L 645.839844 275 L 645.839844 302 L 529 302 Z M 529 275 " clip-rule="nonzero"/></clipPath><clipPath id="8f0cb53601"><rect x="0" width="117" y="0" height="27"/></clipPath><mask id="c28062b7c9"><g filter="url(#23ed079c1a)"><rect x="-250.2" width="1166.4" fill="#000000" y="-414.199998" height="1166.39999" fill-opacity="0.8"/></g></mask><clipPath id="f22dc26663"><path d="M 0.210938 0.734375 L 20.480469 0.734375 L 20.480469 21 L 0.210938 21 Z M 0.210938 0.734375 " clip-rule="nonzero"/></clipPath><clipPath id="4e0a38a96e"><rect x="0" width="21" y="0" height="22"/></clipPath><clipPath id="11caf867ba"><path d="M 207 0.640625 L 228 0.640625 L 228 22 L 207 22 Z M 207 0.640625 " clip-rule="nonzero"/></clipPath><mask id="067f717e40"><g filter="url(#23ed079c1a)"><rect x="-250.2" width="1166.4" fill="#000000" y="-414.199998" height="1166.39999" fill-opacity="0.8"/></g></mask><clipPath id="6e959de109"><path d="M 0.351562 0.695312 L 20.761719 0.695312 L 20.761719 21 L 0.351562 21 Z M 0.351562 0.695312 " clip-rule="nonzero"/></clipPath><clipPath id="bad52fbe66"><rect x="0" width="21" y="0" height="22"/></clipPath><clipPath id="9f1b96244c"><path d="M 27 156 L 70 156 L 70 262 L 27 262 Z M 27 156 " clip-rule="nonzero"/></clipPath><clipPath id="598fc332c3"><path d="M 48.902344 261.761719 L 27.988281 162.082031 L 52.90625 156.855469 L 73.824219 256.535156 Z M 48.902344 261.761719 " clip-rule="nonzero"/></clipPath><clipPath id="ab0fb3b1c5"><path d="M 51.496094 274.816406 L 20.121094 125.296875 L 45.042969 120.066406 L 76.414062 269.585938 Z M 51.496094 274.816406 " clip-rule="nonzero"/></clipPath><clipPath id="77498eb34a"><path d="M 51.4375 274.539062 L 20.351562 126.394531 L 45.777344 121.058594 L 76.863281 269.207031 Z M 51.4375 274.539062 " clip-rule="nonzero"/></clipPath><clipPath id="24b2aa6e17"><path d="M 25 97 L 72 97 L 72 168 L 25 168 Z M 25 97 " clip-rule="nonzero"/></clipPath><clipPath id="2005f6d489"><path d="M 76.394531 108.765625 L 48.378906 167.210938 L 25.417969 156.207031 L 53.433594 97.761719 Z M 76.394531 108.765625 " clip-rule="nonzero"/></clipPath><clipPath id="4a0eba8fc2"><path d="M 87.175781 86.273438 L 23.140625 219.863281 L 0.179688 208.859375 L 64.214844 75.265625 Z M 87.175781 86.273438 " clip-rule="nonzero"/></clipPath><clipPath id="50c504abf8"><path d="M 87.046875 86.542969 L 23.710938 218.671875 L 1.035156 207.804688 L 64.371094 75.675781 Z M 87.046875 86.542969 " clip-rule="nonzero"/></clipPath><clipPath id="7dd7701db6"><path d="M 59 86 L 82 86 L 82 109 L 59 109 Z M 59 86 " clip-rule="nonzero"/></clipPath><clipPath id="c1d0013b70"><path d="M 81.570312 95.347656 L 72.289062 108.628906 L 59.007812 99.347656 L 68.289062 86.066406 Z M 81.570312 95.347656 " clip-rule="nonzero"/></clipPath><clipPath id="95a3738aef"><path d="M 120.574219 55.941406 L 35.710938 177.367188 L 14.839844 162.78125 L 99.707031 41.355469 Z M 120.574219 55.941406 " clip-rule="nonzero"/></clipPath><clipPath id="be1283c89d"><path d="M 120.40625 56.1875 L 36.46875 176.285156 L 15.855469 161.878906 L 99.792969 41.78125 Z M 120.40625 56.1875 " clip-rule="nonzero"/></clipPath><mask id="daee34b364"><g filter="url(#23ed079c1a)"><rect x="-250.2" width="1166.4" fill="#000000" y="-414.199998" height="1166.39999" fill-opacity="0.8"/></g></mask><clipPath id="4245f86e25"><path d="M 0.660156 1.015625 L 16.863281 1.015625 L 16.863281 17.21875 L 0.660156 17.21875 Z M 0.660156 1.015625 " clip-rule="nonzero"/></clipPath><clipPath id="22968713a6"><rect x="0" width="18" y="0" height="18"/></clipPath><mask id="7d34abe4ae"><g filter="url(#23ed079c1a)"><rect x="-250.2" width="1166.4" fill="#000000" y="-414.199998" height="1166.39999" fill-opacity="0.8"/></g></mask><clipPath id="d6dbe1635c"><path d="M 0.722656 0.488281 L 14.320312 0.488281 L 14.320312 14 L 0.722656 14 Z M 0.722656 0.488281 " clip-rule="nonzero"/></clipPath><clipPath id="0eeb095df3"><rect x="0" width="15" y="0" height="14"/></clipPath><mask id="5d4f1f5225"><g filter="url(#23ed079c1a)"><rect x="-250.2" width="1166.4" fill="#000000" y="-414.199998" height="1166.39999" fill-opacity="0.8"/></g></mask><clipPath id="01b84e139f"><path d="M 0.925781 0.269531 L 11.601562 0.269531 L 11.601562 10.960938 L 0.925781 10.960938 Z M 0.925781 0.269531 " clip-rule="nonzero"/></clipPath><clipPath id="0d34a7a441"><rect x="0" width="12" y="0" height="11"/></clipPath><mask id="188b466cea"><g filter="url(#23ed079c1a)"><rect x="-250.2" width="1166.4" fill="#000000" y="-414.199998" height="1166.39999" fill-opacity="0.8"/></g></mask><clipPath id="3ed02f7026"><path d="M 0.324219 0.152344 L 20.601562 0.152344 L 20.601562 20.398438 L 0.324219 20.398438 Z M 0.324219 0.152344 " clip-rule="nonzero"/></clipPath><clipPath id="2b383e6265"><rect x="0" width="21" y="0" height="21"/></clipPath><clipPath id="61c63796b2"><rect x="0" width="646" y="0" height="315"/></clipPath></defs><g transform="matrix(1, 0, 0, 1, 72, 236)"><g clip-path="url(#61c63796b2)"><g clip-path="url(#c7a2c9afc5)"><g transform="matrix(1, 0, 0, 1, 59, 41)"><g clip-path="url(#a271c2697b)"><g fill="#292929" fill-opacity="1"><g transform="translate(0.736618, 215.467817)"><g><path d="M 7.984375 -160.921875 L 25.078125 -160.921875 C 37.535156 -160.921875 48.585938 -156.703125 58.234375 -148.265625 C 67.890625 -139.835938 75.984375 -129.015625 82.515625 -115.796875 C 89.203125 -103.328125 94.519531 -89.609375 98.46875 -74.640625 C 102.414062 -59.679688 105.226562 -44.832031 106.90625 -30.09375 L 106.90625 -160.921875 L 124 -160.921875 L 124 0 L 106.90625 0 C 106.90625 -12.15625 105.953125 -24.992188 104.046875 -38.515625 C 102.148438 -52.046875 99.335938 -65.421875 95.609375 -78.640625 C 91.890625 -91.859375 87.222656 -103.9375 81.609375 -114.875 C 74.765625 -127.945312 66.707031 -138.625 57.4375 -146.90625 C 48.164062 -155.1875 37.378906 -159.328125 25.078125 -159.328125 L 25.078125 0 L 7.984375 0 Z M 7.984375 -160.921875 "/></g></g></g><g fill="#292929" fill-opacity="1"><g transform="translate(132.70326, 215.467817)"><g><path d="M 25.53125 -107.359375 L 25.53125 -1.828125 L 64.046875 -1.828125 C 73.921875 -1.828125 82.007812 -4.253906 88.3125 -9.109375 C 94.625 -13.972656 99.832031 -22.179688 103.9375 -33.734375 L 98.703125 0 L 7.984375 0 L 7.984375 -160.921875 L 100.0625 -160.921875 L 100.0625 -142.6875 C 94.75 -147.851562 89.582031 -151.613281 84.5625 -153.96875 C 79.550781 -156.320312 73.890625 -157.800781 67.578125 -158.40625 C 61.273438 -159.019531 53.488281 -159.328125 44.21875 -159.328125 L 25.53125 -159.328125 L 25.53125 -122.40625 C 25.53125 -112.070312 27.273438 -104.164062 30.765625 -98.6875 C 34.265625 -93.21875 39.507812 -89.535156 46.5 -87.640625 C 53.488281 -85.742188 62.226562 -84.796875 72.71875 -84.796875 L 72.71875 -66.78125 C 69.375 -70.582031 65.382812 -73.582031 60.75 -75.78125 C 56.113281 -77.988281 51.398438 -80.269531 46.609375 -82.625 C 41.828125 -84.976562 37.535156 -88.015625 33.734375 -91.734375 C 29.929688 -95.460938 27.195312 -100.671875 25.53125 -107.359375 Z M 62 -210.15625 C 64.425781 -212.4375 66.398438 -213.648438 67.921875 -213.796875 C 69.441406 -213.953125 70.734375 -213.421875 71.796875 -212.203125 C 72.859375 -210.691406 73.085938 -209.175781 72.484375 -207.65625 C 71.878906 -206.132812 70.207031 -204.535156 67.46875 -202.859375 C 66.101562 -201.953125 63.820312 -200.546875 60.625 -198.640625 C 57.4375 -196.742188 54.132812 -194.804688 50.71875 -192.828125 C 47.300781 -190.859375 44.335938 -189.1875 41.828125 -187.8125 C 39.316406 -186.445312 38.0625 -185.765625 38.0625 -185.765625 L 37.84375 -186.453125 C 37.84375 -186.453125 38.828125 -187.476562 40.796875 -189.53125 C 42.773438 -191.582031 45.207031 -194.015625 48.09375 -196.828125 C 50.976562 -199.640625 53.710938 -202.296875 56.296875 -204.796875 C 58.878906 -207.304688 60.78125 -209.09375 62 -210.15625 Z M 62 -210.15625 "/></g></g></g><g fill="#292929" fill-opacity="1"><g transform="translate(244.612801, 215.467817)"><g><path d="M 68.375 -156.59375 C 58.65625 -153.851562 50.679688 -149.140625 44.453125 -142.453125 C 38.222656 -135.773438 33.546875 -127.953125 30.421875 -118.984375 C 27.304688 -110.015625 25.632812 -100.664062 25.40625 -90.9375 C 25.1875 -81.21875 26.140625 -72.023438 28.265625 -63.359375 C 30.691406 -54.703125 34.453125 -46.234375 39.546875 -37.953125 C 44.640625 -29.671875 50.753906 -22.414062 57.890625 -16.1875 C 65.035156 -9.957031 72.976562 -5.550781 81.71875 -2.96875 C 90.457031 -0.382812 99.6875 -0.382812 109.40625 -2.96875 C 117.914062 -5.238281 125.019531 -9.070312 130.71875 -14.46875 C 136.414062 -19.863281 140.9375 -26.242188 144.28125 -33.609375 C 147.625 -40.984375 149.828125 -48.773438 150.890625 -56.984375 L 150.890625 -28.03125 C 140.554688 -14.96875 126.878906 -6.234375 109.859375 -1.828125 C 98.921875 1.367188 88.207031 2.242188 77.71875 0.796875 C 67.238281 -0.648438 57.515625 -4.03125 48.546875 -9.34375 C 39.585938 -14.664062 31.800781 -21.539062 25.1875 -29.96875 C 18.570312 -38.40625 13.75 -48.019531 10.71875 -58.8125 C 7.976562 -69.59375 7.367188 -80.265625 8.890625 -90.828125 C 10.410156 -101.390625 13.789062 -111.265625 19.03125 -120.453125 C 24.269531 -129.648438 31.03125 -137.515625 39.3125 -144.046875 C 47.59375 -150.585938 57.128906 -155.300781 67.921875 -158.1875 C 78.109375 -160.925781 87.1875 -162.101562 95.15625 -161.71875 C 103.132812 -161.34375 110.085938 -160.015625 116.015625 -157.734375 C 121.941406 -155.453125 126.878906 -152.90625 130.828125 -150.09375 C 134.785156 -147.28125 137.710938 -144.8125 139.609375 -142.6875 C 141.503906 -140.5625 142.453125 -139.5 142.453125 -139.5 L 142.453125 -115.796875 C 142.453125 -115.796875 141.769531 -117.085938 140.40625 -119.671875 C 139.039062 -122.253906 136.988281 -125.484375 134.25 -129.359375 C 131.519531 -133.234375 128.101562 -137.21875 124 -141.3125 C 119.894531 -145.414062 115.109375 -149.0625 109.640625 -152.25 C 104.171875 -155.445312 98.015625 -157.539062 91.171875 -158.53125 C 84.335938 -159.519531 76.738281 -158.875 68.375 -156.59375 Z M 68.375 -156.59375 "/></g></g></g><g fill="#292929" fill-opacity="1"><g transform="translate(403.47424, 215.467817)"><g><path d="M 68.15625 -158.640625 C 78.789062 -161.679688 89.347656 -162.441406 99.828125 -160.921875 C 110.316406 -159.398438 120.082031 -155.976562 129.125 -150.65625 C 138.164062 -145.34375 145.953125 -138.429688 152.484375 -129.921875 C 159.023438 -121.410156 163.660156 -111.757812 166.390625 -100.96875 C 169.429688 -90.332031 170.226562 -79.769531 168.78125 -69.28125 C 167.34375 -58.800781 164 -49.003906 158.75 -39.890625 C 153.507812 -30.773438 146.671875 -22.910156 138.234375 -16.296875 C 129.804688 -9.679688 120.195312 -4.929688 109.40625 -2.046875 C 98.769531 0.984375 88.207031 1.773438 77.71875 0.328125 C 67.238281 -1.109375 57.476562 -4.484375 48.4375 -9.796875 C 39.394531 -15.117188 31.601562 -21.992188 25.0625 -30.421875 C 18.53125 -38.859375 13.75 -48.546875 10.71875 -59.484375 C 7.820312 -70.273438 7.171875 -80.953125 8.765625 -91.515625 C 10.367188 -102.078125 13.789062 -111.878906 19.03125 -120.921875 C 24.269531 -129.960938 31.066406 -137.785156 39.421875 -144.390625 C 47.785156 -151.003906 57.363281 -155.753906 68.15625 -158.640625 Z M 68.375 -156.828125 C 58.65625 -154.390625 50.71875 -149.863281 44.5625 -143.25 C 38.40625 -136.644531 33.804688 -128.859375 30.765625 -119.890625 C 27.734375 -110.929688 26.140625 -101.585938 25.984375 -91.859375 C 25.828125 -82.128906 26.890625 -72.9375 29.171875 -64.28125 C 31.453125 -55.613281 35.0625 -47.175781 40 -38.96875 C 44.9375 -30.769531 50.9375 -23.515625 58 -17.203125 C 65.070312 -10.898438 72.9375 -6.414062 81.59375 -3.75 C 90.257812 -1.09375 99.378906 -1.054688 108.953125 -3.640625 C 118.679688 -6.222656 126.660156 -10.820312 132.890625 -17.4375 C 139.117188 -24.050781 143.75 -31.835938 146.78125 -40.796875 C 149.820312 -49.765625 151.492188 -59.109375 151.796875 -68.828125 C 152.109375 -78.554688 151.125 -87.753906 148.84375 -96.421875 C 146.5625 -105.234375 142.910156 -113.78125 137.890625 -122.0625 C 132.878906 -130.34375 126.84375 -137.597656 119.78125 -143.828125 C 112.71875 -150.054688 104.851562 -154.460938 96.1875 -157.046875 C 87.53125 -159.628906 78.257812 -159.554688 68.375 -156.828125 Z M 68.375 -156.828125 "/></g></g></g></g></g></g><g transform="matrix(1, 0, 0, 1, 59, 16)"><g clip-path="url(#5b8b4cf95a)"><g fill="#292929" fill-opacity="1"><g transform="translate(0.736618, 66.615121)"><g><path d="M 45.640625 0 L 35.734375 -23.734375 C 31.992188 -23.390625 28.910156 -22.628906 26.484375 -21.453125 C 24.066406 -20.285156 22.113281 -18.867188 20.625 -17.203125 C 19.132812 -15.546875 17.9375 -13.8125 17.03125 -12 C 16.125 -10.1875 15.320312 -8.492188 14.625 -6.921875 C 13.8125 -4.753906 12.921875 -2.957031 11.953125 -1.53125 C 10.992188 -0.101562 9.519531 0.582031 7.53125 0.53125 C 7.300781 0.46875 7.082031 0.40625 6.875 0.34375 C 6.664062 0.289062 6.414062 0.144531 6.125 -0.09375 C 3.738281 -1.144531 2.773438 -3.679688 3.234375 -7.703125 C 3.472656 -9.628906 3.898438 -11.804688 4.515625 -14.234375 C 5.128906 -16.660156 5.957031 -19.273438 7 -22.078125 C 8.582031 -26.273438 10.4375 -30.722656 12.5625 -35.421875 C 14.695312 -40.128906 16.945312 -44.773438 19.3125 -49.359375 C 21.675781 -53.941406 23.96875 -58.101562 26.1875 -61.84375 L 26.796875 -61.84375 L 53 0 Z M 35.46875 -24.34375 L 22.59375 -54.3125 C 19.90625 -49.164062 17.203125 -43.742188 14.484375 -38.046875 C 11.773438 -32.359375 9.488281 -26.976562 7.625 -21.90625 C 6.570312 -19.09375 5.738281 -16.488281 5.125 -14.09375 C 4.507812 -11.707031 4.085938 -9.578125 3.859375 -7.703125 C 3.796875 -5.898438 3.9375 -4.367188 4.28125 -3.109375 C 4.632812 -1.847656 5.335938 -1.046875 6.390625 -0.703125 C 6.679688 -0.640625 6.898438 -0.578125 7.046875 -0.515625 C 7.191406 -0.460938 7.382812 -0.378906 7.625 -0.265625 C 9.375 -0.148438 10.6875 -0.757812 11.5625 -2.09375 C 12.4375 -3.4375 13.222656 -5.101562 13.921875 -7.09375 C 14.628906 -8.726562 15.445312 -10.460938 16.375 -12.296875 C 17.3125 -14.140625 18.550781 -15.90625 20.09375 -17.59375 C 21.644531 -19.289062 23.644531 -20.753906 26.09375 -21.984375 C 28.550781 -23.210938 31.675781 -24 35.46875 -24.34375 Z M 35.46875 -24.34375 "/></g></g></g><g fill="#292929" fill-opacity="1"><g transform="translate(56.779927, 66.615121)"><g><path d="M 27.859375 -34.15625 C 30.890625 -33.457031 33.335938 -32.113281 35.203125 -30.125 C 37.078125 -28.144531 38.640625 -25.8125 39.890625 -23.125 C 41.148438 -20.4375 42.363281 -17.722656 43.53125 -14.984375 C 44.644531 -12.472656 45.785156 -10.117188 46.953125 -7.921875 C 48.117188 -5.734375 49.429688 -3.984375 50.890625 -2.671875 C 52.347656 -1.359375 54.039062 -0.703125 55.96875 -0.703125 L 55.96875 0 C 51.414062 0 47.8125 -0.609375 45.15625 -1.828125 C 42.5 -3.054688 40.5 -4.675781 39.15625 -6.6875 C 37.8125 -8.707031 36.847656 -10.914062 36.265625 -13.3125 C 35.679688 -15.707031 35.226562 -18.101562 34.90625 -20.5 C 34.582031 -22.894531 34.113281 -25.097656 33.5 -27.109375 C 32.882812 -29.117188 31.863281 -30.738281 30.4375 -31.96875 C 29.007812 -33.195312 26.894531 -33.8125 24.09375 -33.8125 C 19.65625 -33.8125 16.09375 -35.914062 13.40625 -40.125 C 11.882812 -42.570312 10.742188 -45.578125 9.984375 -49.140625 L 9.984375 0 L 3.0625 0 L 3.0625 -61.921875 L 18.484375 -61.921875 C 22.804688 -61.921875 26.734375 -61.453125 30.265625 -60.515625 C 33.796875 -59.585938 36.625 -58.113281 38.75 -56.09375 C 40.882812 -54.082031 41.953125 -51.414062 41.953125 -48.09375 C 41.953125 -45.226562 41.3125 -42.816406 40.03125 -40.859375 C 38.75 -38.898438 37.039062 -37.378906 34.90625 -36.296875 C 32.769531 -35.222656 30.421875 -34.507812 27.859375 -34.15625 Z M 35.03125 -48.09375 C 35.03125 -51.414062 34.242188 -54.039062 32.671875 -55.96875 C 31.097656 -57.894531 29.054688 -59.253906 26.546875 -60.046875 C 24.035156 -60.835938 21.347656 -61.234375 18.484375 -61.234375 L 9.984375 -61.234375 L 9.984375 -55.796875 C 9.984375 -52.585938 10.347656 -49.726562 11.078125 -47.21875 C 11.804688 -44.707031 12.785156 -42.488281 14.015625 -40.5625 C 15.242188 -38.75 16.734375 -37.269531 18.484375 -36.125 C 20.234375 -34.988281 22.101562 -34.421875 24.09375 -34.421875 L 24.703125 -34.421875 C 27.503906 -34.597656 29.925781 -35.765625 31.96875 -37.921875 C 34.007812 -40.085938 35.03125 -43.476562 35.03125 -48.09375 Z M 35.03125 -48.09375 "/></g></g></g><g fill="#292929" fill-opacity="1"><g transform="translate(115.800522, 66.615121)"><g><path d="M 23.90625 0 L 23.90625 -61.234375 C 20.8125 -61.234375 18.050781 -61.097656 15.625 -60.828125 C 13.207031 -60.566406 10.988281 -60.015625 8.96875 -59.171875 C 6.957031 -58.328125 4.988281 -56.96875 3.0625 -55.09375 L 3.0625 -61.921875 L 51.5 -61.921875 L 51.5 -55.09375 C 49.519531 -56.96875 47.519531 -58.328125 45.5 -59.171875 C 43.488281 -60.015625 41.285156 -60.566406 38.890625 -60.828125 C 36.492188 -61.097656 33.75 -61.234375 30.65625 -61.234375 L 30.65625 0 Z M 23.90625 0 "/></g></g></g></g></g><g clip-path="url(#c5a81e375e)"><g transform="matrix(1, 0, 0, 1, 529, 275)"><g clip-path="url(#8f0cb53601)"><g fill="#292929" fill-opacity="1"><g transform="translate(1.524773, 20.902671)"><g><path d="M 14.53125 -7.5625 C 14.53125 -6.03125 14.226562 -4.691406 13.625 -3.546875 C 13.03125 -2.398438 12.1875 -1.519531 11.09375 -0.90625 C 10 -0.300781 8.738281 0 7.3125 0 L 1.765625 0 L 1.765625 -14.828125 L 6.671875 -14.828125 C 9.179688 -14.828125 11.117188 -14.195312 12.484375 -12.9375 C 13.847656 -11.675781 14.53125 -9.882812 14.53125 -7.5625 Z M 12.515625 -7.5625 C 12.515625 -9.40625 12.007812 -10.804688 11 -11.765625 C 9.988281 -12.734375 8.53125 -13.21875 6.625 -13.21875 L 3.78125 -13.21875 L 3.78125 -1.609375 L 7.078125 -1.609375 C 8.171875 -1.609375 9.128906 -1.847656 9.953125 -2.328125 C 10.773438 -2.804688 11.40625 -3.492188 11.84375 -4.390625 C 12.289062 -5.285156 12.515625 -6.34375 12.515625 -7.5625 Z M 12.515625 -7.5625 "/></g></g></g><g fill="#292929" fill-opacity="1"><g transform="translate(22.465536, 20.902671)"><g><path d="M 1.765625 0 L 1.765625 -14.828125 L 13.015625 -14.828125 L 13.015625 -13.1875 L 3.78125 -13.1875 L 3.78125 -8.421875 L 12.390625 -8.421875 L 12.390625 -6.8125 L 3.78125 -6.8125 L 3.78125 -1.640625 L 13.453125 -1.640625 L 13.453125 0 Z M 1.765625 0 "/></g></g></g><g fill="#292929" fill-opacity="1"><g transform="translate(42.218058, 20.902671)"><g><path d="M 13.375 -4.09375 C 13.375 -2.726562 12.835938 -1.671875 11.765625 -0.921875 C 10.703125 -0.171875 9.203125 0.203125 7.265625 0.203125 C 3.648438 0.203125 1.554688 -1.050781 0.984375 -3.5625 L 2.921875 -3.953125 C 3.148438 -3.054688 3.628906 -2.398438 4.359375 -1.984375 C 5.085938 -1.566406 6.078125 -1.359375 7.328125 -1.359375 C 8.628906 -1.359375 9.628906 -1.578125 10.328125 -2.015625 C 11.035156 -2.460938 11.390625 -3.117188 11.390625 -3.984375 C 11.390625 -4.472656 11.28125 -4.867188 11.0625 -5.171875 C 10.84375 -5.472656 10.53125 -5.71875 10.125 -5.90625 C 9.726562 -6.101562 9.253906 -6.269531 8.703125 -6.40625 C 8.148438 -6.539062 7.535156 -6.6875 6.859375 -6.84375 C 5.691406 -7.101562 4.800781 -7.359375 4.1875 -7.609375 C 3.582031 -7.867188 3.101562 -8.160156 2.75 -8.484375 C 2.40625 -8.804688 2.140625 -9.179688 1.953125 -9.609375 C 1.765625 -10.035156 1.671875 -10.523438 1.671875 -11.078125 C 1.671875 -12.347656 2.15625 -13.328125 3.125 -14.015625 C 4.101562 -14.703125 5.492188 -15.046875 7.296875 -15.046875 C 8.984375 -15.046875 10.269531 -14.785156 11.15625 -14.265625 C 12.050781 -13.753906 12.675781 -12.878906 13.03125 -11.640625 L 11.0625 -11.28125 C 10.84375 -12.070312 10.425781 -12.644531 9.8125 -13 C 9.207031 -13.351562 8.363281 -13.53125 7.28125 -13.53125 C 6.09375 -13.53125 5.1875 -13.332031 4.5625 -12.9375 C 3.9375 -12.550781 3.625 -11.96875 3.625 -11.1875 C 3.625 -10.726562 3.742188 -10.347656 3.984375 -10.046875 C 4.234375 -9.753906 4.582031 -9.503906 5.03125 -9.296875 C 5.488281 -9.085938 6.398438 -8.832031 7.765625 -8.53125 C 8.222656 -8.425781 8.675781 -8.316406 9.125 -8.203125 C 9.582031 -8.097656 10.015625 -7.96875 10.421875 -7.8125 C 10.835938 -7.664062 11.222656 -7.488281 11.578125 -7.28125 C 11.941406 -7.082031 12.257812 -6.835938 12.53125 -6.546875 C 12.800781 -6.253906 13.007812 -5.90625 13.15625 -5.5 C 13.300781 -5.101562 13.375 -4.632812 13.375 -4.09375 Z M 13.375 -4.09375 "/></g></g></g><g fill="#292929" fill-opacity="1"><g transform="translate(61.97058, 20.902671)"><g><path d="M 1.984375 0 L 1.984375 -14.828125 L 4 -14.828125 L 4 0 Z M 1.984375 0 "/></g></g></g><g fill="#292929" fill-opacity="1"><g transform="translate(73.34232, 20.902671)"><g><path d="M 1.078125 -7.484375 C 1.078125 -9.890625 1.722656 -11.75 3.015625 -13.0625 C 4.304688 -14.382812 6.117188 -15.046875 8.453125 -15.046875 C 10.097656 -15.046875 11.429688 -14.765625 12.453125 -14.203125 C 13.484375 -13.648438 14.273438 -12.765625 14.828125 -11.546875 L 12.90625 -10.984375 C 12.488281 -11.828125 11.910156 -12.441406 11.171875 -12.828125 C 10.429688 -13.210938 9.507812 -13.40625 8.40625 -13.40625 C 6.695312 -13.40625 5.390625 -12.882812 4.484375 -11.84375 C 3.578125 -10.8125 3.125 -9.359375 3.125 -7.484375 C 3.125 -5.609375 3.601562 -4.128906 4.5625 -3.046875 C 5.519531 -1.960938 6.847656 -1.421875 8.546875 -1.421875 C 9.515625 -1.421875 10.414062 -1.566406 11.25 -1.859375 C 12.09375 -2.148438 12.773438 -2.550781 13.296875 -3.0625 L 13.296875 -5.734375 L 8.875 -5.734375 L 8.875 -7.421875 L 15.15625 -7.421875 L 15.15625 -2.296875 C 14.363281 -1.503906 13.394531 -0.890625 12.25 -0.453125 C 11.113281 -0.015625 9.878906 0.203125 8.546875 0.203125 C 7.003906 0.203125 5.671875 -0.101562 4.546875 -0.71875 C 3.421875 -1.332031 2.5625 -2.21875 1.96875 -3.375 C 1.375 -4.539062 1.078125 -5.910156 1.078125 -7.484375 Z M 1.078125 -7.484375 "/></g></g></g><g fill="#292929" fill-opacity="1"><g transform="translate(95.48184, 20.902671)"><g><path d="M 11.390625 0 L 3.453125 -12.625 L 3.5 -11.609375 L 3.5625 -9.84375 L 3.5625 0 L 1.765625 0 L 1.765625 -14.828125 L 4.109375 -14.828125 L 12.125 -2.109375 C 12.039062 -3.484375 12 -4.484375 12 -5.109375 L 12 -14.828125 L 13.796875 -14.828125 L 13.796875 0 Z M 11.390625 0 "/></g></g></g></g></g></g><g mask="url(#c28062b7c9)"><g transform="matrix(1, 0, 0, 1, 592, 230)"><g clip-path="url(#4e0a38a96e)"><g clip-path="url(#f22dc26663)"><path fill="#ef3a5d" d="M 20.429688 10.84375 C 20.429688 11.507812 20.363281 12.164062 20.234375 12.816406 C 20.105469 13.464844 19.914062 14.097656 19.660156 14.710938 C 19.40625 15.324219 19.09375 15.90625 18.726562 16.457031 C 18.355469 17.011719 17.9375 17.519531 17.46875 17.992188 C 17 18.460938 16.488281 18.878906 15.9375 19.246094 C 15.382812 19.617188 14.800781 19.929688 14.1875 20.183594 C 13.574219 20.4375 12.941406 20.628906 12.292969 20.757812 C 11.640625 20.886719 10.984375 20.953125 10.320312 20.953125 C 9.65625 20.953125 9 20.886719 8.347656 20.757812 C 7.695312 20.628906 7.066406 20.4375 6.453125 20.183594 C 5.839844 19.929688 5.253906 19.617188 4.703125 19.246094 C 4.152344 18.878906 3.640625 18.460938 3.171875 17.992188 C 2.703125 17.519531 2.285156 17.011719 1.914062 16.457031 C 1.546875 15.90625 1.234375 15.324219 0.980469 14.710938 C 0.726562 14.097656 0.535156 13.464844 0.40625 12.816406 C 0.277344 12.164062 0.210938 11.507812 0.210938 10.84375 C 0.210938 10.179688 0.277344 9.523438 0.40625 8.871094 C 0.535156 8.21875 0.726562 7.585938 0.980469 6.972656 C 1.234375 6.359375 1.546875 5.777344 1.914062 5.226562 C 2.285156 4.675781 2.703125 4.164062 3.171875 3.695312 C 3.640625 3.226562 4.152344 2.804688 4.703125 2.4375 C 5.253906 2.070312 5.839844 1.757812 6.453125 1.503906 C 7.066406 1.25 7.695312 1.058594 8.347656 0.929688 C 9 0.796875 9.65625 0.734375 10.320312 0.734375 C 10.984375 0.734375 11.640625 0.796875 12.292969 0.929688 C 12.941406 1.058594 13.574219 1.25 14.1875 1.503906 C 14.800781 1.757812 15.382812 2.070312 15.9375 2.4375 C 16.488281 2.804688 17 3.226562 17.46875 3.695312 C 17.9375 4.164062 18.355469 4.675781 18.726562 5.226562 C 19.09375 5.777344 19.40625 6.359375 19.660156 6.972656 C 19.914062 7.585938 20.105469 8.21875 20.234375 8.871094 C 20.363281 9.523438 20.429688 10.179688 20.429688 10.84375 Z M 20.429688 10.84375 " fill-opacity="1" fill-rule="nonzero"/></g></g></g></g><g clip-path="url(#11caf867ba)"><g mask="url(#067f717e40)"><g transform="matrix(1, 0, 0, 1, 207, 0.000000000000056843)"><g clip-path="url(#bad52fbe66)"><g clip-path="url(#6e959de109)"><path fill="#7bb7e0" d="M 20.566406 10.804688 C 20.566406 11.464844 20.503906 12.125 20.375 12.773438 C 20.242188 13.425781 20.050781 14.058594 19.796875 14.671875 C 19.542969 15.285156 19.234375 15.867188 18.863281 16.417969 C 18.496094 16.972656 18.074219 17.480469 17.605469 17.949219 C 17.136719 18.421875 16.625 18.839844 16.074219 19.207031 C 15.523438 19.578125 14.941406 19.886719 14.328125 20.140625 C 13.714844 20.394531 13.082031 20.589844 12.429688 20.71875 C 11.78125 20.847656 11.121094 20.910156 10.457031 20.910156 C 9.792969 20.910156 9.136719 20.847656 8.488281 20.71875 C 7.835938 20.589844 7.203125 20.394531 6.589844 20.140625 C 5.976562 19.886719 5.394531 19.578125 4.84375 19.207031 C 4.289062 18.839844 3.78125 18.421875 3.308594 17.949219 C 2.839844 17.480469 2.421875 16.972656 2.054688 16.417969 C 1.683594 15.867188 1.375 15.285156 1.117188 14.671875 C 0.863281 14.058594 0.671875 13.425781 0.542969 12.773438 C 0.414062 12.125 0.351562 11.464844 0.351562 10.804688 C 0.351562 10.140625 0.414062 9.480469 0.542969 8.832031 C 0.671875 8.179688 0.863281 7.546875 1.117188 6.933594 C 1.375 6.320312 1.683594 5.738281 2.054688 5.1875 C 2.421875 4.636719 2.839844 4.125 3.308594 3.65625 C 3.78125 3.1875 4.289062 2.765625 4.84375 2.398438 C 5.394531 2.027344 5.976562 1.71875 6.589844 1.464844 C 7.203125 1.210938 7.835938 1.019531 8.488281 0.886719 C 9.136719 0.757812 9.792969 0.695312 10.457031 0.695312 C 11.121094 0.695312 11.78125 0.757812 12.429688 0.886719 C 13.082031 1.019531 13.714844 1.210938 14.328125 1.464844 C 14.941406 1.71875 15.523438 2.027344 16.074219 2.398438 C 16.625 2.765625 17.136719 3.1875 17.605469 3.65625 C 18.074219 4.125 18.496094 4.636719 18.863281 5.1875 C 19.234375 5.738281 19.542969 6.320312 19.796875 6.933594 C 20.050781 7.546875 20.242188 8.179688 20.375 8.832031 C 20.503906 9.480469 20.566406 10.140625 20.566406 10.804688 Z M 20.566406 10.804688 " fill-opacity="1" fill-rule="nonzero"/></g></g></g></g></g><g clip-path="url(#9f1b96244c)"><g clip-path="url(#598fc332c3)"><g clip-path="url(#ab0fb3b1c5)"><g clip-path="url(#77498eb34a)"><path fill="#292929" d="M 49.765625 171.363281 C 49.726562 171.183594 49.675781 171.015625 49.621094 170.84375 C 49.554688 170.65625 49.476562 170.476562 49.390625 170.296875 C 49.289062 170.097656 49.175781 169.902344 49.054688 169.714844 C 48.929688 169.539062 48.800781 169.367188 48.660156 169.203125 C 48.496094 169.019531 48.324219 168.847656 48.144531 168.683594 C 47.945312 168.511719 47.738281 168.355469 47.523438 168.207031 C 47.269531 168.039062 47.003906 167.886719 46.730469 167.75 C 46.488281 167.632812 46.238281 167.53125 45.984375 167.441406 C 45.734375 167.363281 45.480469 167.296875 45.222656 167.246094 C 44.921875 167.191406 44.625 167.15625 44.320312 167.132812 C 44.300781 167.132812 44.28125 167.132812 44.261719 167.128906 C 44.261719 167.132812 44.261719 167.132812 44.265625 167.128906 C 43.933594 167.117188 43.605469 167.125 43.28125 167.144531 C 42.949219 167.171875 42.625 167.21875 42.300781 167.28125 C 42.09375 167.328125 41.894531 167.378906 41.695312 167.4375 C 41.988281 168.007812 42.304688 168.566406 42.65625 169.101562 C 42.917969 169.484375 43.199219 169.855469 43.503906 170.210938 C 43.796875 170.539062 44.101562 170.859375 44.433594 171.152344 C 44.691406 171.375 44.960938 171.582031 45.238281 171.773438 C 45.554688 171.980469 45.878906 172.164062 46.214844 172.332031 C 46.5625 172.496094 46.917969 172.648438 47.28125 172.769531 C 47.507812 172.84375 47.738281 172.902344 47.972656 172.949219 C 48.117188 172.976562 48.265625 172.992188 48.414062 173.003906 C 48.527344 173.007812 48.636719 173.007812 48.75 173 C 48.835938 172.992188 48.921875 172.980469 49.007812 172.964844 C 49.066406 172.949219 49.125 172.933594 49.179688 172.917969 C 49.230469 172.898438 49.277344 172.878906 49.324219 172.855469 C 49.359375 172.835938 49.390625 172.820312 49.425781 172.796875 C 49.457031 172.777344 49.488281 172.753906 49.519531 172.726562 C 49.542969 172.703125 49.566406 172.679688 49.589844 172.65625 C 49.613281 172.628906 49.632812 172.601562 49.652344 172.574219 C 49.675781 172.539062 49.695312 172.503906 49.714844 172.464844 C 49.730469 172.429688 49.746094 172.390625 49.761719 172.355469 C 49.777344 172.300781 49.789062 172.25 49.800781 172.199219 C 49.808594 172.136719 49.816406 172.074219 49.824219 172.011719 C 49.828125 171.917969 49.824219 171.824219 49.820312 171.730469 C 49.808594 171.605469 49.789062 171.484375 49.765625 171.363281 Z M 62.695312 204.410156 C 62.457031 205.417969 61.835938 206.324219 60.996094 206.925781 C 60.621094 207.195312 60.171875 207.324219 59.71875 207.378906 C 59.460938 207.410156 59.195312 207.425781 58.9375 207.398438 C 58.660156 207.371094 58.390625 207.316406 58.117188 207.242188 C 57.535156 207.085938 56.992188 206.816406 56.46875 206.515625 C 55.898438 206.191406 55.351562 205.816406 54.820312 205.433594 C 53.699219 204.621094 52.652344 203.71875 51.601562 202.816406 C 50.601562 201.949219 49.601562 201.078125 48.503906 200.328125 C 48.113281 200.070312 47.710938 199.832031 47.292969 199.621094 C 47.015625 199.492188 46.734375 199.371094 46.449219 199.273438 C 46.453125 199.273438 46.457031 199.273438 46.460938 199.277344 C 46.453125 199.277344 46.449219 199.273438 46.445312 199.273438 C 46.425781 199.265625 46.40625 199.257812 46.390625 199.253906 C 46.402344 199.257812 46.417969 199.261719 46.433594 199.269531 C 46.191406 199.1875 45.945312 199.125 45.699219 199.070312 C 45.476562 199.027344 45.257812 199 45.035156 198.980469 C 44.828125 198.972656 44.617188 198.972656 44.410156 198.984375 C 44.242188 199 44.078125 199.019531 43.914062 199.050781 C 43.753906 199.085938 43.59375 199.132812 43.433594 199.183594 C 43.269531 199.242188 43.109375 199.308594 42.953125 199.382812 C 42.796875 199.464844 42.644531 199.550781 42.496094 199.640625 C 42.394531 199.710938 42.300781 199.78125 42.203125 199.855469 C 42.121094 199.933594 42.042969 200.011719 41.964844 200.09375 C 41.890625 200.1875 41.820312 200.28125 41.753906 200.378906 C 41.65625 200.535156 41.566406 200.691406 41.484375 200.851562 C 41.382812 201.0625 41.292969 201.277344 41.214844 201.5 C 41.121094 201.792969 41.042969 202.089844 40.980469 202.394531 C 40.921875 202.730469 40.882812 203.066406 40.859375 203.402344 C 40.839844 203.863281 40.847656 204.320312 40.875 204.777344 C 40.929688 205.375 41.015625 205.960938 41.128906 206.550781 C 41.308594 207.390625 41.542969 208.214844 41.820312 209.023438 C 42.183594 210.035156 42.609375 211.015625 43.078125 211.980469 C 43.699219 213.21875 44.363281 214.441406 45.128906 215.601562 C 46.949219 218.265625 49.078125 220.703125 51.191406 223.132812 C 51.183594 223.121094 51.171875 223.109375 51.164062 223.097656 C 51.199219 223.140625 51.234375 223.179688 51.269531 223.21875 C 51.480469 223.460938 51.695312 223.707031 51.90625 223.949219 C 52.011719 224.074219 52.121094 224.195312 52.226562 224.316406 C 52.230469 224.320312 52.230469 224.320312 52.230469 224.324219 C 52.246094 224.339844 52.261719 224.355469 52.277344 224.375 C 52.285156 224.386719 52.292969 224.394531 52.300781 224.40625 C 52.3125 224.417969 52.324219 224.429688 52.335938 224.441406 C 52.335938 224.445312 52.339844 224.445312 52.339844 224.449219 C 52.355469 224.464844 52.367188 224.476562 52.378906 224.492188 C 52.488281 224.617188 52.59375 224.742188 52.703125 224.867188 C 53.171875 225.40625 53.640625 225.949219 54.105469 226.496094 C 54.546875 227.011719 54.972656 227.535156 55.398438 228.066406 C 55.824219 228.59375 56.242188 229.125 56.636719 229.671875 C 57.464844 230.816406 58.257812 231.984375 59.007812 233.179688 C 59.433594 233.855469 59.847656 234.539062 60.253906 235.226562 C 60.65625 235.90625 61.03125 236.601562 61.398438 237.300781 C 62.125 238.699219 62.808594 240.125 63.414062 241.578125 C 63.984375 242.941406 64.53125 244.3125 65.042969 245.703125 C 65.585938 247.179688 66.109375 248.667969 66.578125 250.175781 C 67.023438 251.609375 67.445312 253.058594 67.839844 254.507812 C 68.222656 255.921875 68.507812 257.363281 68.796875 258.796875 C 68.953125 259.554688 69.105469 260.3125 69.234375 261.074219 C 69.363281 261.835938 69.464844 262.601562 69.558594 263.371094 C 69.605469 263.746094 69.644531 264.125 69.683594 264.507812 C 69.707031 264.683594 69.71875 264.859375 69.734375 265.035156 C 69.742188 265.117188 69.75 265.199219 69.753906 265.277344 C 69.757812 265.328125 69.765625 265.378906 69.765625 265.429688 C 69.769531 265.46875 69.773438 265.507812 69.777344 265.550781 C 69.828125 266.214844 69.851562 266.875 69.878906 267.539062 C 69.90625 268.160156 69.925781 268.785156 69.890625 269.402344 C 69.871094 269.734375 69.859375 270.078125 69.757812 270.390625 C 69.753906 270.40625 69.746094 270.417969 69.742188 270.429688 C 69.742188 270.441406 69.734375 270.453125 69.734375 270.460938 C 69.640625 270.710938 69.347656 270.84375 69.097656 270.777344 C 68.828125 270.710938 68.621094 270.402344 68.710938 270.121094 C 68.730469 270.066406 68.742188 270.007812 68.753906 269.953125 C 68.789062 269.746094 68.804688 269.539062 68.816406 269.332031 C 68.839844 268.738281 68.824219 268.144531 68.800781 267.550781 C 68.773438 266.898438 68.75 266.246094 68.699219 265.59375 C 68.691406 265.5 68.683594 265.402344 68.679688 265.308594 C 68.679688 265.324219 68.679688 265.339844 68.679688 265.359375 C 68.582031 264.207031 68.453125 263.058594 68.277344 261.917969 C 68.089844 260.722656 67.851562 259.542969 67.609375 258.363281 C 67.613281 258.382812 67.617188 258.40625 67.621094 258.429688 C 67.453125 257.613281 67.28125 256.796875 67.09375 255.984375 C 66.894531 255.125 66.660156 254.273438 66.417969 253.429688 C 65.921875 251.699219 65.402344 249.980469 64.816406 248.28125 C 64.824219 248.304688 64.832031 248.324219 64.839844 248.347656 C 64.308594 246.824219 63.757812 245.308594 63.164062 243.808594 C 62.867188 243.066406 62.5625 242.328125 62.25 241.59375 C 61.902344 240.769531 61.523438 239.960938 61.128906 239.160156 C 61.128906 239.164062 61.132812 239.167969 61.132812 239.171875 C 60.542969 237.976562 59.929688 236.796875 59.25 235.648438 C 58.597656 234.546875 57.921875 233.457031 57.210938 232.390625 C 57.226562 232.410156 57.238281 232.425781 57.25 232.445312 C 56.488281 231.308594 55.707031 230.1875 54.855469 229.113281 C 53.988281 228.019531 53.085938 226.957031 52.175781 225.902344 C 51.964844 225.65625 51.753906 225.414062 51.542969 225.171875 C 51.5 225.128906 51.460938 225.078125 51.417969 225.03125 C 51.40625 225.019531 51.398438 225.007812 51.386719 224.996094 C 51.316406 224.914062 51.246094 224.832031 51.171875 224.75 C 50.921875 224.460938 50.671875 224.175781 50.421875 223.890625 C 50.433594 223.902344 50.441406 223.910156 50.453125 223.921875 C 48.566406 221.757812 46.675781 219.585938 44.980469 217.261719 C 44.546875 216.667969 44.132812 216.066406 43.746094 215.441406 C 43.390625 214.859375 43.0625 214.257812 42.734375 213.660156 C 42.082031 212.457031 41.503906 211.21875 41.007812 209.941406 C 40.484375 208.597656 40.109375 207.195312 39.898438 205.769531 C 39.703125 204.460938 39.710938 203.109375 40 201.816406 C 40.144531 201.183594 40.386719 200.5625 40.714844 200.007812 C 40.859375 199.757812 41.023438 199.523438 41.21875 199.3125 C 41.429688 199.078125 41.679688 198.878906 41.945312 198.710938 C 42.457031 198.394531 43.011719 198.148438 43.601562 198.015625 C 44.179688 197.886719 44.785156 197.863281 45.375 197.929688 C 47.375 198.152344 49.09375 199.328125 50.617188 200.566406 C 51.523438 201.308594 52.398438 202.085938 53.289062 202.839844 C 54.203125 203.613281 55.136719 204.359375 56.128906 205.03125 C 56.59375 205.339844 57.070312 205.628906 57.566406 205.882812 C 57.75 205.96875 57.9375 206.046875 58.128906 206.117188 C 58.347656 206.1875 58.566406 206.246094 58.789062 206.292969 C 58.878906 206.304688 58.964844 206.316406 59.054688 206.324219 C 59.179688 206.332031 59.300781 206.332031 59.425781 206.324219 C 59.570312 206.3125 59.710938 206.292969 59.851562 206.265625 C 59.917969 206.25 59.980469 206.230469 60.042969 206.210938 C 60.097656 206.191406 60.152344 206.167969 60.203125 206.144531 C 60.257812 206.113281 60.3125 206.082031 60.367188 206.050781 C 60.453125 205.988281 60.53125 205.925781 60.609375 205.859375 C 60.71875 205.761719 60.820312 205.660156 60.917969 205.554688 C 61.011719 205.445312 61.09375 205.335938 61.175781 205.222656 C 61.261719 205.085938 61.339844 204.949219 61.410156 204.808594 C 61.472656 204.675781 61.527344 204.542969 61.574219 204.410156 C 61.617188 204.273438 61.652344 204.136719 61.679688 204 C 61.710938 203.804688 61.734375 203.605469 61.75 203.410156 C 61.757812 203.160156 61.753906 202.917969 61.738281 202.667969 C 61.710938 202.351562 61.664062 202.042969 61.601562 201.730469 C 61.519531 201.351562 61.414062 200.980469 61.292969 200.613281 C 61.113281 200.101562 60.902344 199.601562 60.664062 199.113281 C 60.339844 198.472656 59.976562 197.851562 59.582031 197.25 C 59.59375 197.269531 59.605469 197.289062 59.621094 197.308594 C 59.097656 196.535156 58.53125 195.800781 57.921875 195.097656 C 57.9375 195.113281 57.949219 195.132812 57.964844 195.148438 C 57.367188 194.46875 56.726562 193.832031 56.046875 193.226562 C 55.105469 192.40625 54.105469 191.65625 53.097656 190.921875 C 52.21875 190.289062 51.339844 189.65625 50.464844 189.015625 C 49.589844 188.375 48.71875 187.722656 47.863281 187.050781 C 47.003906 186.371094 46.167969 185.664062 45.34375 184.941406 C 45.347656 184.941406 45.351562 184.945312 45.355469 184.949219 C 44.441406 184.144531 43.554688 183.3125 42.683594 182.460938 C 41.78125 181.578125 40.890625 180.667969 40.058594 179.714844 C 39.027344 178.53125 38.132812 177.230469 37.5 175.792969 C 37.222656 175.15625 37.015625 174.484375 36.890625 173.804688 C 36.777344 173.183594 36.746094 172.554688 36.785156 171.925781 C 36.84375 171.019531 37.132812 170.136719 37.5625 169.339844 C 37.980469 168.558594 38.613281 167.882812 39.34375 167.378906 C 39.625 167.1875 39.914062 167.015625 40.21875 166.867188 C 40.148438 166.714844 40.082031 166.5625 40.011719 166.410156 C 39.644531 165.585938 39.320312 164.738281 39.0625 163.871094 C 38.839844 163.121094 38.671875 162.351562 38.480469 161.59375 C 38.238281 160.625 37.960938 159.667969 37.640625 158.726562 C 37.648438 158.746094 37.65625 158.769531 37.664062 158.789062 C 37.289062 157.707031 36.84375 156.65625 36.335938 155.628906 C 35.707031 154.378906 35 153.175781 34.226562 152.007812 C 34.242188 152.027344 34.253906 152.046875 34.265625 152.066406 C 33.207031 150.484375 32.023438 149 30.777344 147.5625 C 30.78125 147.570312 30.789062 147.574219 30.792969 147.582031 C 29.796875 146.441406 28.769531 145.332031 27.789062 144.179688 C 27.320312 143.628906 26.863281 143.0625 26.429688 142.484375 C 26.011719 141.921875 25.621094 141.339844 25.246094 140.746094 C 24.546875 139.636719 23.925781 138.476562 23.363281 137.289062 C 22.886719 136.289062 22.453125 135.261719 22.09375 134.214844 C 21.675781 132.992188 21.433594 131.71875 21.425781 130.425781 C 21.410156 129.0625 21.613281 127.710938 21.878906 126.375 C 21.9375 126.085938 22.265625 125.917969 22.535156 125.988281 C 22.675781 126.023438 22.796875 126.117188 22.871094 126.242188 C 22.941406 126.367188 22.953125 126.503906 22.925781 126.644531 C 22.902344 126.761719 22.878906 126.878906 22.855469 126.996094 C 22.859375 126.972656 22.867188 126.949219 22.871094 126.925781 C 22.707031 127.796875 22.582031 128.671875 22.523438 129.554688 C 22.523438 129.539062 22.527344 129.523438 22.527344 129.507812 C 22.527344 129.523438 22.523438 129.542969 22.523438 129.558594 C 22.523438 129.566406 22.523438 129.570312 22.523438 129.578125 C 22.523438 129.570312 22.523438 129.566406 22.523438 129.5625 C 22.496094 130.089844 22.496094 130.613281 22.53125 131.140625 C 22.570312 131.5625 22.628906 131.976562 22.710938 132.386719 C 22.828125 132.949219 22.988281 133.5 23.175781 134.042969 C 23.171875 134.027344 23.164062 134.011719 23.160156 134 C 23.558594 135.140625 24.050781 136.253906 24.582031 137.339844 C 24.574219 137.320312 24.5625 137.296875 24.550781 137.277344 C 25.140625 138.460938 25.785156 139.613281 26.511719 140.71875 C 27.273438 141.863281 28.128906 142.933594 29.03125 143.972656 C 30.023438 145.109375 31.050781 146.21875 32.03125 147.367188 C 33.035156 148.539062 33.992188 149.753906 34.867188 151.03125 C 35.730469 152.292969 36.515625 153.605469 37.210938 154.964844 C 37.890625 156.296875 38.445312 157.683594 38.902344 159.105469 C 39.226562 160.109375 39.484375 161.136719 39.734375 162.160156 C 39.910156 162.882812 40.09375 163.597656 40.332031 164.300781 C 40.589844 165.035156 40.890625 165.753906 41.21875 166.457031 C 42.230469 166.125 43.3125 166 44.378906 166.058594 C 44.871094 166.089844 45.355469 166.160156 45.835938 166.277344 C 46.308594 166.390625 46.765625 166.566406 47.203125 166.78125 C 48 167.167969 48.742188 167.695312 49.34375 168.351562 C 49.851562 168.902344 50.257812 169.539062 50.542969 170.230469 C 50.667969 170.539062 50.761719 170.855469 50.828125 171.179688 C 50.882812 171.453125 50.917969 171.738281 50.902344 172.023438 C 50.871094 172.570312 50.691406 173.109375 50.28125 173.488281 C 49.855469 173.886719 49.289062 174.054688 48.714844 174.082031 C 48.042969 174.117188 47.375 173.945312 46.746094 173.726562 C 46.394531 173.605469 46.050781 173.449219 45.710938 173.285156 C 45.371094 173.113281 45.035156 172.929688 44.714844 172.71875 C 43.265625 171.757812 42.132812 170.394531 41.261719 168.90625 C 41.058594 168.554688 40.867188 168.199219 40.683594 167.835938 C 40.675781 167.84375 40.667969 167.847656 40.660156 167.851562 C 40.445312 167.960938 40.234375 168.082031 40.03125 168.214844 C 39.863281 168.332031 39.703125 168.453125 39.546875 168.582031 C 39.394531 168.71875 39.253906 168.859375 39.113281 169.007812 C 38.964844 169.179688 38.824219 169.359375 38.695312 169.550781 C 38.582031 169.722656 38.480469 169.902344 38.386719 170.082031 C 38.28125 170.308594 38.191406 170.535156 38.109375 170.769531 C 38.046875 170.972656 37.992188 171.175781 37.949219 171.382812 C 37.902344 171.640625 37.871094 171.898438 37.851562 172.160156 C 37.84375 172.429688 37.847656 172.699219 37.867188 172.972656 C 37.894531 173.261719 37.9375 173.550781 37.996094 173.835938 C 38.066406 174.144531 38.152344 174.445312 38.253906 174.746094 C 38.386719 175.125 38.542969 175.496094 38.71875 175.859375 C 38.964844 176.347656 39.242188 176.816406 39.539062 177.273438 C 39.527344 177.261719 39.519531 177.246094 39.511719 177.234375 C 39.898438 177.8125 40.324219 178.363281 40.777344 178.894531 C 41.589844 179.828125 42.453125 180.71875 43.335938 181.589844 C 44.210938 182.449219 45.105469 183.285156 46.023438 184.101562 C 46.0625 184.136719 46.105469 184.175781 46.148438 184.210938 C 46.144531 184.207031 46.144531 184.207031 46.140625 184.207031 C 47.042969 185 47.96875 185.765625 48.917969 186.503906 C 49.890625 187.257812 50.882812 187.988281 51.878906 188.710938 C 52.851562 189.417969 53.835938 190.117188 54.796875 190.835938 C 56.050781 191.769531 57.246094 192.78125 58.3125 193.921875 C 59.292969 194.976562 60.175781 196.121094 60.921875 197.351562 C 61.609375 198.480469 62.1875 199.691406 62.53125 200.972656 C 62.578125 201.152344 62.621094 201.332031 62.660156 201.511719 C 62.859375 202.464844 62.917969 203.460938 62.695312 204.410156 " fill-opacity="1" fill-rule="nonzero"/></g></g></g></g><g clip-path="url(#24b2aa6e17)"><g clip-path="url(#2005f6d489)"><g clip-path="url(#4a0eba8fc2)"><g clip-path="url(#50c504abf8)"><path fill="#292929" d="M 27.585938 166.804688 C 27.511719 166.964844 27.449219 167.125 27.390625 167.289062 C 27.335938 167.472656 27.285156 167.65625 27.246094 167.84375 C 27.207031 168.054688 27.179688 168.273438 27.164062 168.488281 C 27.15625 168.695312 27.15625 168.90625 27.164062 169.113281 C 27.183594 169.351562 27.210938 169.585938 27.257812 169.820312 C 27.308594 170.066406 27.375 170.308594 27.453125 170.546875 C 27.550781 170.828125 27.660156 171.101562 27.792969 171.367188 C 27.910156 171.601562 28.039062 171.824219 28.183594 172.042969 C 28.332031 172.25 28.488281 172.449219 28.652344 172.644531 C 28.851562 172.859375 29.0625 173.0625 29.28125 173.257812 C 29.296875 173.273438 29.308594 173.285156 29.324219 173.296875 C 29.324219 173.296875 29.324219 173.296875 29.324219 173.292969 C 29.566406 173.496094 29.824219 173.6875 30.085938 173.863281 C 30.359375 174.035156 30.632812 174.191406 30.921875 174.335938 C 31.105469 174.421875 31.289062 174.496094 31.476562 174.570312 C 31.589844 173.960938 31.675781 173.347656 31.71875 172.726562 C 31.742188 172.277344 31.746094 171.828125 31.71875 171.378906 C 31.691406 170.949219 31.640625 170.527344 31.558594 170.105469 C 31.492188 169.785156 31.40625 169.464844 31.304688 169.152344 C 31.1875 168.808594 31.042969 168.476562 30.882812 168.148438 C 30.714844 167.816406 30.53125 167.492188 30.324219 167.183594 C 30.191406 166.996094 30.054688 166.8125 29.902344 166.640625 C 29.800781 166.535156 29.699219 166.433594 29.59375 166.335938 C 29.507812 166.269531 29.421875 166.203125 29.332031 166.144531 C 29.261719 166.101562 29.1875 166.058594 29.113281 166.019531 C 29.058594 165.996094 29.003906 165.972656 28.949219 165.953125 C 28.902344 165.941406 28.855469 165.925781 28.804688 165.914062 C 28.765625 165.910156 28.730469 165.90625 28.695312 165.902344 C 28.65625 165.898438 28.617188 165.898438 28.582031 165.902344 C 28.546875 165.90625 28.515625 165.910156 28.480469 165.914062 C 28.449219 165.921875 28.417969 165.929688 28.386719 165.941406 C 28.347656 165.953125 28.3125 165.96875 28.273438 165.984375 C 28.238281 166.003906 28.207031 166.023438 28.175781 166.042969 C 28.132812 166.074219 28.089844 166.109375 28.050781 166.140625 C 28.007812 166.183594 27.964844 166.226562 27.925781 166.269531 C 27.867188 166.339844 27.8125 166.414062 27.761719 166.492188 C 27.699219 166.59375 27.640625 166.699219 27.585938 166.804688 Z M 37.109375 133.800781 C 37.882812 133.164062 38.894531 132.835938 39.894531 132.867188 C 40.339844 132.882812 40.765625 133.046875 41.144531 133.273438 C 41.359375 133.402344 41.574219 133.542969 41.753906 133.714844 C 41.953125 133.902344 42.128906 134.101562 42.292969 134.320312 C 42.648438 134.785156 42.90625 135.308594 43.132812 135.847656 C 43.378906 136.433594 43.578125 137.042969 43.761719 137.652344 C 44.144531 138.933594 44.417969 140.246094 44.691406 141.554688 C 44.953125 142.8125 45.207031 144.070312 45.609375 145.289062 C 45.757812 145.71875 45.925781 146.136719 46.125 146.546875 C 46.257812 146.808594 46.40625 147.066406 46.566406 147.3125 C 46.566406 147.308594 46.5625 147.304688 46.5625 147.304688 C 46.566406 147.308594 46.566406 147.3125 46.570312 147.316406 C 46.582031 147.332031 46.589844 147.347656 46.601562 147.363281 C 46.59375 147.351562 46.585938 147.335938 46.578125 147.324219 C 46.714844 147.527344 46.867188 147.722656 47.023438 147.910156 C 47.167969 148.070312 47.320312 148.222656 47.480469 148.367188 C 47.636719 148.5 47.796875 148.621094 47.964844 148.734375 C 48.101562 148.820312 48.238281 148.902344 48.382812 148.976562 C 48.53125 149.042969 48.679688 149.101562 48.832031 149.15625 C 48.992188 149.207031 49.152344 149.25 49.320312 149.285156 C 49.484375 149.316406 49.652344 149.339844 49.820312 149.355469 C 49.9375 149.363281 50.054688 149.363281 50.171875 149.363281 C 50.28125 149.355469 50.386719 149.339844 50.496094 149.320312 C 50.609375 149.292969 50.71875 149.261719 50.824219 149.226562 C 50.992188 149.164062 51.152344 149.097656 51.3125 149.019531 C 51.511719 148.917969 51.707031 148.804688 51.902344 148.683594 C 52.144531 148.511719 52.382812 148.328125 52.605469 148.132812 C 52.847656 147.910156 53.074219 147.675781 53.292969 147.429688 C 53.578125 147.085938 53.839844 146.730469 54.089844 146.363281 C 54.402344 145.875 54.679688 145.371094 54.9375 144.851562 C 55.296875 144.101562 55.601562 143.332031 55.863281 142.542969 C 56.179688 141.554688 56.429688 140.550781 56.636719 139.535156 C 56.890625 138.214844 57.097656 136.882812 57.195312 135.542969 C 57.363281 132.425781 57.164062 129.300781 56.96875 126.1875 C 56.96875 126.199219 56.972656 126.214844 56.972656 126.230469 C 56.96875 126.179688 56.964844 126.125 56.960938 126.074219 C 56.960938 126.074219 56.960938 126.074219 56.960938 126.078125 C 56.941406 125.765625 56.921875 125.453125 56.902344 125.136719 C 56.890625 124.980469 56.882812 124.824219 56.871094 124.667969 C 56.871094 124.664062 56.871094 124.664062 56.871094 124.660156 C 56.871094 124.636719 56.867188 124.617188 56.867188 124.59375 C 56.867188 124.582031 56.867188 124.566406 56.867188 124.554688 C 56.863281 124.539062 56.863281 124.523438 56.863281 124.507812 C 56.863281 124.503906 56.863281 124.5 56.863281 124.5 C 56.859375 124.480469 56.859375 124.460938 56.859375 124.445312 C 56.847656 124.285156 56.839844 124.125 56.828125 123.964844 C 56.785156 123.273438 56.746094 122.582031 56.710938 121.886719 C 56.675781 121.234375 56.65625 120.578125 56.640625 119.921875 C 56.625 119.265625 56.617188 118.609375 56.636719 117.957031 C 56.671875 116.589844 56.753906 115.226562 56.878906 113.867188 C 56.949219 113.097656 57.035156 112.328125 57.125 111.558594 C 57.21875 110.800781 57.339844 110.046875 57.46875 109.292969 C 57.734375 107.789062 58.046875 106.292969 58.4375 104.816406 C 58.800781 103.433594 59.191406 102.058594 59.613281 100.691406 C 60.066406 99.238281 60.542969 97.785156 61.070312 96.351562 C 61.570312 94.984375 62.097656 93.625 62.652344 92.277344 C 63.1875 90.96875 63.820312 89.691406 64.4375 88.417969 C 64.765625 87.746094 65.09375 87.074219 65.445312 86.410156 C 65.796875 85.75 66.167969 85.101562 66.546875 84.457031 C 66.734375 84.140625 66.925781 83.824219 67.117188 83.511719 C 67.207031 83.363281 67.300781 83.21875 67.390625 83.074219 C 67.433594 83.007812 67.476562 82.941406 67.519531 82.875 C 67.546875 82.835938 67.570312 82.792969 67.601562 82.753906 C 67.621094 82.71875 67.640625 82.6875 67.664062 82.65625 C 68.015625 82.117188 68.382812 81.589844 68.753906 81.066406 C 69.097656 80.574219 69.453125 80.082031 69.84375 79.625 C 70.050781 79.382812 70.265625 79.128906 70.527344 78.945312 C 70.539062 78.9375 70.550781 78.929688 70.5625 78.921875 C 70.570312 78.917969 70.578125 78.914062 70.585938 78.90625 C 70.804688 78.769531 71.109375 78.839844 71.261719 79.035156 C 71.429688 79.25 71.40625 79.609375 71.171875 79.769531 C 71.125 79.800781 71.082031 79.835938 71.039062 79.875 C 70.894531 80.011719 70.761719 80.160156 70.628906 80.3125 C 70.257812 80.753906 69.921875 81.222656 69.589844 81.691406 C 69.226562 82.207031 68.863281 82.726562 68.515625 83.253906 C 68.464844 83.332031 68.414062 83.410156 68.363281 83.488281 C 68.371094 83.472656 68.382812 83.460938 68.390625 83.445312 C 67.789062 84.390625 67.210938 85.347656 66.675781 86.328125 C 66.117188 87.355469 65.605469 88.402344 65.097656 89.453125 C 65.105469 89.433594 65.117188 89.414062 65.125 89.394531 C 64.777344 90.121094 64.425781 90.847656 64.09375 91.582031 C 63.738281 92.359375 63.417969 93.152344 63.105469 93.945312 C 62.472656 95.566406 61.855469 97.191406 61.304688 98.84375 C 61.3125 98.820312 61.320312 98.800781 61.328125 98.777344 C 60.839844 100.261719 60.371094 101.75 59.945312 103.253906 C 59.734375 103.996094 59.535156 104.746094 59.34375 105.492188 C 59.125 106.328125 58.941406 107.175781 58.769531 108.023438 C 58.773438 108.019531 58.773438 108.015625 58.773438 108.007812 C 58.527344 109.277344 58.300781 110.542969 58.148438 111.824219 C 58 113.058594 57.878906 114.292969 57.792969 115.53125 C 57.792969 115.507812 57.796875 115.484375 57.796875 115.460938 C 57.710938 116.785156 57.65625 118.109375 57.675781 119.433594 C 57.699219 120.785156 57.765625 122.132812 57.84375 123.480469 C 57.863281 123.792969 57.882812 124.101562 57.902344 124.414062 C 57.90625 124.472656 57.910156 124.535156 57.914062 124.597656 C 57.914062 124.613281 57.914062 124.625 57.914062 124.640625 C 57.921875 124.746094 57.929688 124.851562 57.9375 124.957031 C 57.960938 125.324219 57.984375 125.691406 58.007812 126.058594 C 58.003906 126.042969 58.003906 126.027344 58.003906 126.015625 C 58.175781 128.792969 58.351562 131.570312 58.285156 134.355469 C 58.269531 135.066406 58.234375 135.773438 58.160156 136.480469 C 58.09375 137.136719 57.992188 137.792969 57.890625 138.445312 C 57.683594 139.753906 57.398438 141.046875 57.027344 142.316406 C 56.640625 143.65625 56.101562 144.957031 55.425781 146.175781 C 54.800781 147.296875 54.003906 148.332031 53.019531 149.152344 C 52.539062 149.554688 51.984375 149.886719 51.402344 150.125 C 51.148438 150.230469 50.882812 150.3125 50.605469 150.363281 C 50.308594 150.414062 49.996094 150.421875 49.695312 150.394531 C 49.117188 150.335938 48.542969 150.199219 48.015625 149.953125 C 47.492188 149.714844 47.015625 149.375 46.601562 148.976562 C 45.195312 147.628906 44.566406 145.714844 44.128906 143.863281 C 43.867188 142.761719 43.652344 141.648438 43.414062 140.542969 C 43.164062 139.414062 42.882812 138.289062 42.519531 137.191406 C 42.34375 136.679688 42.148438 136.175781 41.914062 135.6875 C 41.824219 135.511719 41.726562 135.34375 41.621094 135.175781 C 41.496094 134.996094 41.363281 134.820312 41.21875 134.652344 C 41.160156 134.589844 41.097656 134.53125 41.03125 134.472656 C 40.941406 134.394531 40.847656 134.324219 40.746094 134.253906 C 40.628906 134.179688 40.511719 134.113281 40.386719 134.050781 C 40.328125 134.023438 40.265625 134 40.207031 133.976562 C 40.152344 133.960938 40.097656 133.945312 40.046875 133.933594 C 39.984375 133.925781 39.921875 133.917969 39.863281 133.910156 C 39.761719 133.910156 39.664062 133.910156 39.5625 133.914062 C 39.421875 133.925781 39.285156 133.945312 39.144531 133.96875 C 39.011719 133.996094 38.882812 134.03125 38.753906 134.070312 C 38.609375 134.125 38.46875 134.183594 38.328125 134.25 C 38.207031 134.316406 38.085938 134.386719 37.96875 134.460938 C 37.855469 134.539062 37.75 134.625 37.648438 134.714844 C 37.507812 134.847656 37.375 134.984375 37.246094 135.128906 C 37.09375 135.3125 36.953125 135.503906 36.820312 135.703125 C 36.65625 135.960938 36.507812 136.226562 36.371094 136.503906 C 36.214844 136.84375 36.074219 137.1875 35.949219 137.542969 C 35.785156 138.039062 35.65625 138.550781 35.550781 139.066406 C 35.421875 139.75 35.335938 140.4375 35.289062 141.132812 C 35.289062 141.113281 35.289062 141.089844 35.292969 141.066406 C 35.234375 141.96875 35.238281 142.867188 35.292969 143.765625 C 35.292969 143.746094 35.292969 143.722656 35.289062 143.699219 C 35.351562 144.574219 35.46875 145.445312 35.632812 146.304688 C 35.875 147.492188 36.199219 148.652344 36.542969 149.8125 C 36.84375 150.820312 37.148438 151.820312 37.445312 152.828125 C 37.738281 153.839844 38.023438 154.851562 38.28125 155.871094 C 38.542969 156.898438 38.773438 157.933594 38.976562 158.976562 C 38.976562 158.96875 38.976562 158.96875 38.976562 158.964844 C 39.203125 160.117188 39.394531 161.28125 39.5625 162.445312 C 39.734375 163.65625 39.882812 164.878906 39.960938 166.101562 C 40.058594 167.621094 39.980469 169.140625 39.617188 170.621094 C 39.460938 171.273438 39.21875 171.910156 38.914062 172.507812 C 38.640625 173.054688 38.292969 173.550781 37.890625 174.011719 C 37.3125 174.671875 36.570312 175.183594 35.773438 175.542969 C 34.992188 175.898438 34.105469 176.042969 33.25 176 C 32.921875 175.984375 32.597656 175.941406 32.273438 175.878906 C 32.238281 176.035156 32.203125 176.195312 32.164062 176.351562 C 31.960938 177.203125 31.714844 178.042969 31.398438 178.863281 C 31.128906 179.570312 30.804688 180.257812 30.507812 180.953125 C 30.125 181.839844 29.773438 182.738281 29.460938 183.652344 C 29.46875 183.632812 29.476562 183.609375 29.484375 183.589844 C 29.136719 184.640625 28.855469 185.710938 28.640625 186.796875 C 28.390625 188.128906 28.222656 189.46875 28.132812 190.820312 C 28.132812 190.800781 28.132812 190.777344 28.136719 190.753906 C 28.015625 192.59375 28.050781 194.429688 28.164062 196.269531 C 28.164062 196.261719 28.164062 196.253906 28.164062 196.246094 C 28.257812 197.707031 28.394531 199.164062 28.46875 200.628906 C 28.507812 201.328125 28.523438 202.03125 28.515625 202.730469 C 28.503906 203.410156 28.460938 204.085938 28.402344 204.761719 C 28.285156 206.027344 28.078125 207.285156 27.8125 208.527344 C 27.589844 209.578125 27.320312 210.621094 26.976562 211.636719 C 26.578125 212.824219 26.015625 213.941406 25.261719 214.941406 C 24.46875 215.996094 23.515625 216.917969 22.527344 217.785156 C 22.3125 217.972656 21.960938 217.910156 21.792969 217.699219 C 21.710938 217.585938 21.667969 217.445312 21.6875 217.308594 C 21.707031 217.167969 21.78125 217.054688 21.882812 216.964844 C 21.96875 216.886719 22.054688 216.8125 22.140625 216.734375 C 22.125 216.75 22.109375 216.765625 22.089844 216.78125 C 22.730469 216.207031 23.339844 215.609375 23.90625 214.964844 C 23.894531 214.976562 23.882812 214.988281 23.875 215 C 23.886719 214.988281 23.898438 214.976562 23.90625 214.960938 C 23.910156 214.957031 23.914062 214.953125 23.917969 214.949219 C 23.914062 214.953125 23.910156 214.957031 23.910156 214.960938 C 24.238281 214.570312 24.550781 214.167969 24.832031 213.738281 C 25.050781 213.394531 25.25 213.042969 25.429688 212.679688 C 25.667969 212.175781 25.867188 211.660156 26.046875 211.132812 C 26.042969 211.148438 26.035156 211.160156 26.03125 211.175781 C 26.398438 210.0625 26.675781 208.921875 26.90625 207.773438 C 26.902344 207.792969 26.898438 207.816406 26.890625 207.835938 C 27.136719 206.582031 27.316406 205.316406 27.414062 204.042969 C 27.5 202.714844 27.472656 201.386719 27.394531 200.054688 C 27.300781 198.597656 27.164062 197.144531 27.085938 195.683594 C 27.003906 194.1875 26.984375 192.691406 27.0625 191.195312 C 27.144531 189.71875 27.3125 188.25 27.582031 186.792969 C 27.84375 185.371094 28.230469 183.980469 28.71875 182.617188 C 29.0625 181.65625 29.464844 180.714844 29.878906 179.78125 C 30.167969 179.125 30.449219 178.464844 30.679688 177.785156 C 30.910156 177.070312 31.101562 176.339844 31.265625 175.605469 C 30.292969 175.261719 29.386719 174.722656 28.601562 174.050781 C 28.242188 173.738281 27.910156 173.398438 27.613281 173.027344 C 27.316406 172.660156 27.070312 172.253906 26.859375 171.835938 C 26.472656 171.066406 26.210938 170.222656 26.136719 169.367188 C 26.074219 168.644531 26.132812 167.917969 26.324219 167.214844 C 26.40625 166.90625 26.523438 166.609375 26.664062 166.320312 C 26.78125 166.074219 26.925781 165.835938 27.101562 165.628906 C 27.449219 165.226562 27.902344 164.917969 28.441406 164.863281 C 29.003906 164.8125 29.539062 165.015625 29.996094 165.332031 C 30.535156 165.699219 30.945312 166.226562 31.296875 166.765625 C 31.5 167.066406 31.671875 167.386719 31.832031 167.714844 C 31.996094 168.046875 32.144531 168.386719 32.265625 168.738281 C 32.8125 170.324219 32.882812 172.042969 32.671875 173.699219 C 32.621094 174.085938 32.558594 174.472656 32.488281 174.859375 C 32.496094 174.859375 32.503906 174.863281 32.515625 174.863281 C 32.746094 174.90625 32.976562 174.933594 33.210938 174.953125 C 33.410156 174.960938 33.605469 174.964844 33.800781 174.957031 C 33.996094 174.941406 34.191406 174.917969 34.382812 174.886719 C 34.601562 174.839844 34.816406 174.785156 35.027344 174.714844 C 35.214844 174.648438 35.394531 174.570312 35.574219 174.484375 C 35.789062 174.375 35.996094 174.253906 36.195312 174.121094 C 36.359375 174.003906 36.523438 173.878906 36.679688 173.746094 C 36.863281 173.574219 37.042969 173.394531 37.210938 173.207031 C 37.375 173.003906 37.53125 172.792969 37.675781 172.574219 C 37.828125 172.332031 37.960938 172.085938 38.085938 171.835938 C 38.210938 171.554688 38.324219 171.273438 38.425781 170.980469 C 38.542969 170.609375 38.640625 170.234375 38.722656 169.851562 C 38.820312 169.332031 38.886719 168.808594 38.925781 168.285156 C 38.925781 168.296875 38.921875 168.316406 38.921875 168.328125 C 38.964844 167.65625 38.964844 166.984375 38.929688 166.308594 C 38.851562 165.113281 38.714844 163.917969 38.546875 162.730469 C 38.382812 161.554688 38.1875 160.386719 37.960938 159.222656 C 37.953125 159.167969 37.941406 159.113281 37.929688 159.0625 C 37.933594 159.066406 37.933594 159.066406 37.933594 159.070312 C 37.707031 157.929688 37.445312 156.792969 37.152344 155.667969 C 36.847656 154.515625 36.515625 153.371094 36.175781 152.230469 C 35.84375 151.113281 35.5 150 35.183594 148.878906 C 34.773438 147.425781 34.449219 145.945312 34.300781 144.4375 C 34.167969 143.054688 34.164062 141.652344 34.3125 140.265625 C 34.453125 138.996094 34.722656 137.722656 35.210938 136.539062 C 35.28125 136.375 35.351562 136.210938 35.429688 136.050781 C 35.835938 135.199219 36.378906 134.398438 37.109375 133.800781 " fill-opacity="1" fill-rule="nonzero"/></g></g></g></g><g clip-path="url(#7dd7701db6)"><g clip-path="url(#c1d0013b70)"><g clip-path="url(#95a3738aef)"><g clip-path="url(#be1283c89d)"><path fill="#292929" d="M 48.707031 125.734375 C 48.609375 125.878906 48.523438 126.027344 48.4375 126.179688 C 48.351562 126.351562 48.273438 126.523438 48.203125 126.703125 C 48.132812 126.90625 48.070312 127.117188 48.019531 127.328125 C 47.976562 127.53125 47.941406 127.734375 47.917969 127.941406 C 47.894531 128.179688 47.886719 128.417969 47.894531 128.65625 C 47.90625 128.90625 47.929688 129.15625 47.96875 129.40625 C 48.019531 129.695312 48.085938 129.984375 48.171875 130.269531 C 48.25 130.519531 48.34375 130.761719 48.449219 131 C 48.558594 131.230469 48.679688 131.453125 48.8125 131.667969 C 48.976562 131.914062 49.148438 132.148438 49.332031 132.378906 C 49.34375 132.394531 49.359375 132.40625 49.371094 132.421875 C 49.371094 132.421875 49.371094 132.421875 49.367188 132.421875 C 49.578125 132.660156 49.796875 132.886719 50.03125 133.105469 C 50.269531 133.320312 50.515625 133.519531 50.777344 133.707031 C 50.945312 133.820312 51.113281 133.925781 51.289062 134.027344 C 51.496094 133.445312 51.679688 132.851562 51.824219 132.25 C 51.921875 131.808594 51.996094 131.367188 52.046875 130.917969 C 52.085938 130.492188 52.105469 130.0625 52.09375 129.636719 C 52.078125 129.308594 52.046875 128.980469 51.996094 128.65625 C 51.933594 128.296875 51.851562 127.945312 51.746094 127.597656 C 51.632812 127.242188 51.503906 126.890625 51.347656 126.554688 C 51.25 126.34375 51.140625 126.144531 51.019531 125.949219 C 50.9375 125.828125 50.855469 125.710938 50.761719 125.597656 C 50.691406 125.515625 50.617188 125.441406 50.539062 125.363281 C 50.472656 125.308594 50.410156 125.257812 50.339844 125.207031 C 50.292969 125.175781 50.242188 125.144531 50.191406 125.117188 C 50.148438 125.09375 50.101562 125.074219 50.054688 125.054688 C 50.019531 125.042969 49.984375 125.03125 49.949219 125.023438 C 49.910156 125.015625 49.875 125.007812 49.835938 125.003906 C 49.804688 125.003906 49.769531 125 49.738281 125 C 49.703125 125.003906 49.667969 125.007812 49.636719 125.011719 C 49.597656 125.019531 49.558594 125.027344 49.519531 125.039062 C 49.484375 125.050781 49.449219 125.066406 49.414062 125.078125 C 49.363281 125.101562 49.320312 125.128906 49.277344 125.15625 C 49.226562 125.191406 49.175781 125.226562 49.128906 125.261719 C 49.0625 125.324219 48.996094 125.386719 48.933594 125.453125 C 48.851562 125.542969 48.78125 125.636719 48.707031 125.734375 Z M 63.460938 94.714844 C 64.328125 94.210938 65.378906 94.050781 66.359375 94.242188 C 66.800781 94.332031 67.191406 94.5625 67.527344 94.847656 C 67.71875 95.007812 67.90625 95.183594 68.058594 95.382812 C 68.222656 95.597656 68.363281 95.824219 68.492188 96.066406 C 68.769531 96.582031 68.933594 97.140625 69.070312 97.707031 C 69.21875 98.328125 69.320312 98.960938 69.398438 99.59375 C 69.566406 100.921875 69.628906 102.257812 69.683594 103.597656 C 69.738281 104.875 69.785156 106.160156 69.984375 107.429688 C 70.058594 107.878906 70.15625 108.316406 70.289062 108.753906 C 70.378906 109.035156 70.480469 109.3125 70.601562 109.582031 C 70.601562 109.578125 70.597656 109.574219 70.597656 109.570312 C 70.597656 109.574219 70.601562 109.582031 70.601562 109.585938 C 70.609375 109.601562 70.617188 109.617188 70.625 109.632812 C 70.621094 109.621094 70.613281 109.609375 70.609375 109.59375 C 70.710938 109.816406 70.828125 110.03125 70.957031 110.242188 C 71.070312 110.425781 71.195312 110.601562 71.332031 110.769531 C 71.464844 110.925781 71.601562 111.070312 71.75 111.210938 C 71.867188 111.316406 71.992188 111.417969 72.121094 111.515625 C 72.257812 111.605469 72.394531 111.691406 72.535156 111.765625 C 72.6875 111.84375 72.839844 111.910156 72.996094 111.972656 C 73.15625 112.03125 73.316406 112.082031 73.480469 112.125 C 73.59375 112.152344 73.707031 112.171875 73.824219 112.1875 C 73.933594 112.199219 74.042969 112.199219 74.152344 112.199219 C 74.265625 112.191406 74.378906 112.179688 74.492188 112.160156 C 74.664062 112.125 74.835938 112.085938 75.003906 112.035156 C 75.222656 111.96875 75.429688 111.886719 75.640625 111.796875 C 75.910156 111.667969 76.171875 111.527344 76.425781 111.371094 C 76.703125 111.1875 76.964844 110.996094 77.21875 110.785156 C 77.554688 110.496094 77.871094 110.1875 78.179688 109.863281 C 78.5625 109.433594 78.921875 108.984375 79.261719 108.511719 C 79.734375 107.828125 80.160156 107.117188 80.550781 106.382812 C 81.023438 105.460938 81.429688 104.507812 81.800781 103.539062 C 82.265625 102.277344 82.6875 101 83 99.691406 C 83.671875 96.644531 83.980469 93.527344 84.292969 90.421875 C 84.292969 90.4375 84.289062 90.453125 84.289062 90.46875 C 84.292969 90.414062 84.300781 90.363281 84.304688 90.308594 C 84.304688 90.3125 84.304688 90.3125 84.304688 90.3125 C 84.335938 90 84.367188 89.691406 84.398438 89.378906 C 84.414062 89.222656 84.429688 89.0625 84.445312 88.90625 C 84.445312 88.90625 84.445312 88.902344 84.445312 88.902344 C 84.445312 88.878906 84.449219 88.855469 84.453125 88.835938 C 84.453125 88.824219 84.453125 88.808594 84.457031 88.796875 C 84.457031 88.78125 84.457031 88.765625 84.460938 88.75 C 84.460938 88.746094 84.460938 88.742188 84.460938 88.738281 C 84.460938 88.722656 84.464844 88.703125 84.46875 88.683594 C 84.484375 88.527344 84.5 88.367188 84.515625 88.207031 C 84.585938 87.519531 84.65625 86.828125 84.734375 86.140625 C 84.808594 85.488281 84.894531 84.835938 84.988281 84.1875 C 85.078125 83.539062 85.175781 82.890625 85.300781 82.246094 C 85.558594 80.90625 85.859375 79.574219 86.203125 78.25 C 86.398438 77.503906 86.605469 76.757812 86.820312 76.015625 C 87.035156 75.28125 87.277344 74.554688 87.527344 73.835938 C 88.035156 72.394531 88.585938 70.96875 89.210938 69.574219 C 89.792969 68.269531 90.402344 66.976562 91.039062 65.695312 C 91.722656 64.332031 92.429688 62.976562 93.179688 61.648438 C 93.898438 60.382812 94.640625 59.125 95.402344 57.886719 C 96.144531 56.679688 96.972656 55.523438 97.792969 54.367188 C 98.222656 53.757812 98.65625 53.148438 99.113281 52.550781 C 99.5625 51.957031 100.035156 51.375 100.515625 50.800781 C 100.75 50.519531 100.992188 50.238281 101.234375 49.960938 C 101.34375 49.828125 101.460938 49.699219 101.574219 49.574219 C 101.625 49.515625 101.679688 49.457031 101.730469 49.398438 C 101.765625 49.363281 101.796875 49.324219 101.832031 49.289062 C 101.855469 49.261719 101.882812 49.230469 101.910156 49.203125 C 102.34375 48.726562 102.792969 48.269531 103.242188 47.8125 C 103.664062 47.382812 104.089844 46.957031 104.550781 46.566406 C 104.796875 46.363281 105.050781 46.144531 105.339844 46.007812 C 105.351562 46.003906 105.363281 45.996094 105.375 45.992188 C 105.382812 45.988281 105.394531 45.984375 105.402344 45.980469 C 105.640625 45.878906 105.929688 45.996094 106.046875 46.21875 C 106.179688 46.453125 106.097656 46.804688 105.84375 46.925781 C 105.789062 46.949219 105.742188 46.976562 105.691406 47.007812 C 105.527344 47.121094 105.371094 47.246094 105.214844 47.375 C 104.78125 47.75 104.371094 48.15625 103.964844 48.566406 C 103.523438 49.015625 103.082031 49.46875 102.65625 49.933594 C 102.59375 50.003906 102.527344 50.070312 102.464844 50.136719 C 102.476562 50.125 102.488281 50.113281 102.5 50.101562 C 101.753906 50.933594 101.027344 51.789062 100.339844 52.667969 C 99.621094 53.589844 98.945312 54.539062 98.273438 55.496094 C 98.285156 55.476562 98.300781 55.460938 98.3125 55.441406 C 97.847656 56.101562 97.386719 56.765625 96.9375 57.433594 C 96.460938 58.144531 96.015625 58.871094 95.582031 59.605469 C 94.691406 61.101562 93.820312 62.605469 93.011719 64.144531 C 93.019531 64.125 93.03125 64.105469 93.039062 64.085938 C 92.320312 65.46875 91.613281 66.863281 90.949219 68.277344 C 90.625 68.976562 90.304688 69.679688 89.992188 70.386719 C 89.640625 71.179688 89.324219 71.980469 89.019531 72.789062 C 89.019531 72.789062 89.019531 72.785156 89.023438 72.78125 C 88.574219 73.988281 88.144531 75.203125 87.785156 76.441406 C 87.4375 77.632812 87.121094 78.832031 86.835938 80.039062 C 86.839844 80.019531 86.84375 79.996094 86.851562 79.976562 C 86.550781 81.269531 86.28125 82.5625 86.085938 83.875 C 85.890625 85.210938 85.734375 86.550781 85.59375 87.894531 C 85.5625 88.207031 85.53125 88.515625 85.5 88.824219 C 85.496094 88.886719 85.488281 88.945312 85.480469 89.007812 C 85.480469 89.023438 85.480469 89.035156 85.476562 89.050781 C 85.46875 89.15625 85.457031 89.261719 85.445312 89.367188 C 85.410156 89.730469 85.375 90.097656 85.335938 90.464844 C 85.339844 90.449219 85.339844 90.433594 85.339844 90.421875 C 85.0625 93.1875 84.78125 95.960938 84.265625 98.695312 C 84.136719 99.394531 83.988281 100.085938 83.800781 100.773438 C 83.625 101.410156 83.421875 102.039062 83.210938 102.667969 C 82.796875 103.925781 82.304688 105.15625 81.734375 106.351562 C 81.132812 107.609375 80.390625 108.804688 79.527344 109.894531 C 78.730469 110.902344 77.773438 111.792969 76.667969 112.445312 C 76.128906 112.761719 75.527344 113 74.917969 113.140625 C 74.648438 113.203125 74.371094 113.242188 74.09375 113.246094 C 73.789062 113.25 73.480469 113.207031 73.1875 113.128906 C 72.625 112.976562 72.082031 112.75 71.601562 112.421875 C 71.125 112.101562 70.710938 111.691406 70.363281 111.230469 C 69.195312 109.667969 68.886719 107.679688 68.753906 105.78125 C 68.675781 104.652344 68.644531 103.519531 68.585938 102.390625 C 68.527344 101.234375 68.429688 100.078125 68.25 98.933594 C 68.160156 98.402344 68.046875 97.875 67.898438 97.351562 C 67.835938 97.167969 67.769531 96.984375 67.691406 96.804688 C 67.597656 96.605469 67.492188 96.410156 67.378906 96.222656 C 67.328125 96.148438 67.277344 96.082031 67.222656 96.011719 C 67.144531 95.921875 67.0625 95.835938 66.976562 95.75 C 66.871094 95.660156 66.765625 95.574219 66.652344 95.488281 C 66.597656 95.453125 66.542969 95.421875 66.488281 95.390625 C 66.4375 95.367188 66.386719 95.34375 66.335938 95.320312 C 66.277344 95.300781 66.21875 95.285156 66.160156 95.269531 C 66.058594 95.25 65.964844 95.234375 65.863281 95.222656 C 65.722656 95.214844 65.582031 95.207031 65.445312 95.207031 C 65.308594 95.214844 65.171875 95.226562 65.039062 95.246094 C 64.886719 95.273438 64.742188 95.3125 64.59375 95.351562 C 64.460938 95.398438 64.328125 95.449219 64.203125 95.503906 C 64.078125 95.566406 63.960938 95.628906 63.84375 95.703125 C 63.683594 95.808594 63.53125 95.921875 63.382812 96.042969 C 63.199219 96.203125 63.03125 96.367188 62.867188 96.542969 C 62.660156 96.773438 62.472656 97.011719 62.292969 97.257812 C 62.082031 97.570312 61.890625 97.886719 61.710938 98.214844 C 61.46875 98.683594 61.253906 99.164062 61.066406 99.65625 C 60.828125 100.308594 60.632812 100.976562 60.472656 101.652344 C 60.476562 101.632812 60.484375 101.609375 60.488281 101.585938 C 60.289062 102.46875 60.144531 103.355469 60.054688 104.253906 C 60.054688 104.230469 60.058594 104.207031 60.058594 104.1875 C 59.976562 105.058594 59.949219 105.933594 59.972656 106.8125 C 60.019531 108.019531 60.152344 109.222656 60.304688 110.421875 C 60.4375 111.460938 60.574219 112.5 60.703125 113.542969 C 60.828125 114.585938 60.945312 115.632812 61.035156 116.679688 C 61.128906 117.738281 61.1875 118.796875 61.21875 119.855469 C 61.21875 119.851562 61.21875 119.847656 61.21875 119.84375 C 61.253906 121.023438 61.257812 122.199219 61.234375 123.375 C 61.207031 124.601562 61.15625 125.832031 61.035156 127.050781 C 60.882812 128.5625 60.558594 130.050781 59.960938 131.453125 C 59.699219 132.070312 59.359375 132.660156 58.960938 133.203125 C 58.601562 133.691406 58.179688 134.128906 57.707031 134.519531 C 57.03125 135.078125 56.214844 135.460938 55.367188 135.6875 C 54.539062 135.90625 53.644531 135.90625 52.804688 135.726562 C 52.484375 135.65625 52.167969 135.5625 51.863281 135.449219 C 51.800781 135.597656 51.742188 135.746094 51.679688 135.894531 C 51.339844 136.703125 50.957031 137.492188 50.515625 138.25 C 50.132812 138.90625 49.703125 139.53125 49.292969 140.171875 C 48.773438 140.984375 48.28125 141.8125 47.824219 142.664062 C 47.835938 142.644531 47.847656 142.625 47.855469 142.605469 C 47.34375 143.585938 46.894531 144.59375 46.503906 145.632812 C 46.039062 146.90625 45.660156 148.203125 45.347656 149.523438 C 45.355469 149.5 45.359375 149.476562 45.363281 149.457031 C 44.949219 151.25 44.683594 153.070312 44.496094 154.902344 C 44.5 154.894531 44.5 154.886719 44.5 154.878906 C 44.355469 156.335938 44.257812 157.796875 44.09375 159.253906 C 44.011719 159.949219 43.917969 160.644531 43.792969 161.335938 C 43.675781 162.003906 43.523438 162.664062 43.351562 163.320312 C 43.035156 164.550781 42.625 165.757812 42.164062 166.941406 C 41.773438 167.941406 41.335938 168.925781 40.832031 169.875 C 40.246094 170.980469 39.507812 171.992188 38.601562 172.855469 C 37.648438 173.769531 36.5625 174.523438 35.445312 175.21875 C 35.203125 175.371094 34.867188 175.25 34.734375 175.011719 C 34.667969 174.890625 34.652344 174.742188 34.691406 174.609375 C 34.734375 174.476562 34.824219 174.378906 34.941406 174.304688 C 35.039062 174.242188 35.136719 174.179688 35.234375 174.117188 C 35.214844 174.132812 35.195312 174.144531 35.175781 174.15625 C 35.898438 173.695312 36.597656 173.203125 37.261719 172.65625 C 37.25 172.667969 37.234375 172.679688 37.222656 172.6875 C 37.238281 172.675781 37.25 172.667969 37.261719 172.65625 C 37.269531 172.652344 37.273438 172.648438 37.277344 172.644531 C 37.273438 172.648438 37.269531 172.652344 37.265625 172.65625 C 37.652344 172.324219 38.027344 171.976562 38.375 171.601562 C 38.644531 171.296875 38.898438 170.980469 39.136719 170.648438 C 39.453125 170.195312 39.734375 169.714844 39.996094 169.226562 C 39.988281 169.238281 39.980469 169.253906 39.972656 169.265625 C 40.515625 168.226562 40.976562 167.144531 41.386719 166.046875 C 41.378906 166.066406 41.371094 166.089844 41.363281 166.109375 C 41.808594 164.914062 42.195312 163.691406 42.496094 162.449219 C 42.796875 161.152344 42.984375 159.839844 43.121094 158.511719 C 43.265625 157.058594 43.367188 155.601562 43.53125 154.148438 C 43.691406 152.660156 43.914062 151.179688 44.234375 149.71875 C 44.554688 148.273438 44.957031 146.847656 45.457031 145.457031 C 45.949219 144.097656 46.558594 142.789062 47.257812 141.523438 C 47.753906 140.628906 48.304688 139.765625 48.863281 138.910156 C 49.253906 138.308594 49.640625 137.703125 49.976562 137.070312 C 50.324219 136.402344 50.632812 135.714844 50.914062 135.015625 C 50.007812 134.519531 49.199219 133.839844 48.535156 133.050781 C 48.230469 132.683594 47.960938 132.292969 47.722656 131.878906 C 47.492188 131.46875 47.3125 131.027344 47.175781 130.578125 C 46.917969 129.761719 46.796875 128.882812 46.863281 128.027344 C 46.917969 127.304688 47.09375 126.59375 47.394531 125.933594 C 47.527344 125.644531 47.691406 125.367188 47.875 125.105469 C 48.03125 124.882812 48.210938 124.671875 48.421875 124.496094 C 48.828125 124.152344 49.324219 123.921875 49.867188 123.957031 C 50.433594 123.996094 50.921875 124.285156 51.324219 124.671875 C 51.796875 125.125 52.113281 125.707031 52.378906 126.296875 C 52.527344 126.628906 52.644531 126.972656 52.75 127.320312 C 52.859375 127.675781 52.949219 128.035156 53.011719 128.402344 C 53.296875 130.058594 53.085938 131.761719 52.609375 133.363281 C 52.496094 133.738281 52.371094 134.109375 52.238281 134.476562 C 52.246094 134.480469 52.253906 134.484375 52.265625 134.484375 C 52.484375 134.566406 52.710938 134.632812 52.9375 134.6875 C 53.128906 134.726562 53.324219 134.761719 53.519531 134.785156 C 53.714844 134.804688 53.90625 134.8125 54.105469 134.8125 C 54.328125 134.800781 54.546875 134.78125 54.765625 134.746094 C 54.960938 134.710938 55.15625 134.664062 55.34375 134.609375 C 55.574219 134.535156 55.796875 134.449219 56.015625 134.351562 C 56.199219 134.261719 56.378906 134.164062 56.554688 134.058594 C 56.765625 133.917969 56.96875 133.773438 57.164062 133.613281 C 57.363281 133.441406 57.550781 133.257812 57.730469 133.066406 C 57.914062 132.851562 58.089844 132.628906 58.253906 132.402344 C 58.421875 132.148438 58.578125 131.886719 58.726562 131.617188 C 58.902344 131.269531 59.0625 130.914062 59.203125 130.546875 C 59.382812 130.050781 59.53125 129.546875 59.65625 129.035156 C 59.652344 129.046875 59.648438 129.0625 59.648438 129.078125 C 59.796875 128.421875 59.90625 127.757812 59.980469 127.085938 C 60.101562 125.890625 60.15625 124.691406 60.183594 123.492188 C 60.210938 122.308594 60.210938 121.121094 60.175781 119.933594 C 60.175781 119.878906 60.175781 119.828125 60.171875 119.773438 C 60.171875 119.777344 60.171875 119.777344 60.171875 119.78125 C 60.136719 118.617188 60.0625 117.457031 59.953125 116.296875 C 59.84375 115.113281 59.699219 113.929688 59.550781 112.746094 C 59.402344 111.589844 59.246094 110.4375 59.113281 109.277344 C 58.945312 107.777344 58.863281 106.265625 58.964844 104.753906 C 59.058594 103.367188 59.28125 101.980469 59.652344 100.640625 C 59.996094 99.40625 60.46875 98.195312 61.144531 97.105469 C 61.238281 96.957031 61.335938 96.804688 61.4375 96.660156 C 61.980469 95.886719 62.644531 95.183594 63.460938 94.714844 " fill-opacity="1" fill-rule="nonzero"/></g></g></g></g><g mask="url(#daee34b364)"><g transform="matrix(1, 0, 0, 1, 35, 137)"><g clip-path="url(#22968713a6)"><g clip-path="url(#4245f86e25)"><path fill="#ffffff" d="M 16.863281 9.117188 C 16.863281 9.648438 16.808594 10.175781 16.707031 10.695312 C 16.601562 11.21875 16.449219 11.726562 16.246094 12.214844 C 16.042969 12.707031 15.792969 13.175781 15.496094 13.617188 C 15.199219 14.058594 14.863281 14.46875 14.488281 14.84375 C 14.113281 15.222656 13.703125 15.558594 13.261719 15.851562 C 12.820312 16.148438 12.351562 16.398438 11.859375 16.601562 C 11.371094 16.804688 10.863281 16.957031 10.339844 17.0625 C 9.820312 17.167969 9.292969 17.21875 8.761719 17.21875 C 8.226562 17.21875 7.703125 17.167969 7.179688 17.0625 C 6.65625 16.957031 6.152344 16.804688 5.660156 16.601562 C 5.167969 16.398438 4.703125 16.148438 4.257812 15.851562 C 3.816406 15.558594 3.40625 15.222656 3.03125 14.84375 C 2.65625 14.46875 2.320312 14.058594 2.023438 13.617188 C 1.730469 13.175781 1.480469 12.707031 1.277344 12.214844 C 1.070312 11.726562 0.917969 11.21875 0.816406 10.695312 C 0.710938 10.175781 0.660156 9.648438 0.660156 9.117188 C 0.660156 8.585938 0.710938 8.058594 0.816406 7.535156 C 0.917969 7.015625 1.070312 6.507812 1.277344 6.015625 C 1.480469 5.523438 1.730469 5.058594 2.023438 4.617188 C 2.320312 4.171875 2.65625 3.765625 3.03125 3.386719 C 3.40625 3.011719 3.816406 2.675781 4.257812 2.378906 C 4.703125 2.085938 5.167969 1.835938 5.660156 1.632812 C 6.152344 1.429688 6.65625 1.273438 7.179688 1.171875 C 7.703125 1.066406 8.226562 1.015625 8.761719 1.015625 C 9.292969 1.015625 9.820312 1.066406 10.339844 1.171875 C 10.863281 1.273438 11.371094 1.429688 11.859375 1.632812 C 12.351562 1.835938 12.820312 2.085938 13.261719 2.378906 C 13.703125 2.675781 14.113281 3.011719 14.488281 3.386719 C 14.863281 3.765625 15.199219 4.171875 15.496094 4.617188 C 15.792969 5.058594 16.042969 5.523438 16.246094 6.015625 C 16.449219 6.507812 16.601562 7.015625 16.707031 7.535156 C 16.808594 8.058594 16.863281 8.585938 16.863281 9.117188 Z M 16.863281 9.117188 " fill-opacity="1" fill-rule="nonzero"/></g></g></g></g><g mask="url(#7d34abe4ae)"><g transform="matrix(1, 0, 0, 1, 56, 98)"><g clip-path="url(#0eeb095df3)"><g clip-path="url(#d6dbe1635c)"><path fill="#25632d" d="M 14.105469 7.179688 C 14.105469 7.617188 14.0625 8.050781 13.976562 8.484375 C 13.890625 8.914062 13.761719 9.332031 13.59375 9.738281 C 13.425781 10.144531 13.21875 10.53125 12.976562 10.894531 C 12.730469 11.261719 12.453125 11.597656 12.144531 11.910156 C 11.832031 12.21875 11.496094 12.496094 11.128906 12.742188 C 10.765625 12.984375 10.378906 13.191406 9.972656 13.359375 C 9.566406 13.527344 9.148438 13.65625 8.71875 13.742188 C 8.289062 13.828125 7.851562 13.871094 7.414062 13.871094 C 6.972656 13.871094 6.539062 13.828125 6.105469 13.742188 C 5.675781 13.65625 5.257812 13.527344 4.851562 13.359375 C 4.445312 13.191406 4.0625 12.984375 3.695312 12.742188 C 3.332031 12.496094 2.992188 12.21875 2.679688 11.910156 C 2.371094 11.597656 2.09375 11.261719 1.847656 10.894531 C 1.605469 10.53125 1.398438 10.144531 1.230469 9.738281 C 1.0625 9.332031 0.9375 8.914062 0.851562 8.484375 C 0.765625 8.050781 0.722656 7.617188 0.722656 7.179688 C 0.722656 6.738281 0.765625 6.304688 0.851562 5.871094 C 0.9375 5.441406 1.0625 5.023438 1.230469 4.617188 C 1.398438 4.210938 1.605469 3.828125 1.847656 3.460938 C 2.09375 3.09375 2.371094 2.757812 2.679688 2.445312 C 2.992188 2.136719 3.332031 1.859375 3.695312 1.613281 C 4.0625 1.371094 4.445312 1.164062 4.851562 0.996094 C 5.257812 0.828125 5.675781 0.703125 6.105469 0.617188 C 6.539062 0.53125 6.972656 0.488281 7.414062 0.488281 C 7.851562 0.488281 8.289062 0.53125 8.71875 0.617188 C 9.148438 0.703125 9.566406 0.828125 9.972656 0.996094 C 10.378906 1.164062 10.765625 1.371094 11.128906 1.613281 C 11.496094 1.859375 11.832031 2.136719 12.144531 2.445312 C 12.453125 2.757812 12.730469 3.09375 12.976562 3.460938 C 13.21875 3.828125 13.425781 4.210938 13.59375 4.617188 C 13.761719 5.023438 13.890625 5.441406 13.976562 5.871094 C 14.0625 6.304688 14.105469 6.738281 14.105469 7.179688 Z M 14.105469 7.179688 " fill-opacity="1" fill-rule="nonzero"/></g></g></g></g><g mask="url(#5d4f1f5225)"><g transform="matrix(1, 0, 0, 1, 40, 168)"><g clip-path="url(#0d34a7a441)"><g clip-path="url(#01b84e139f)"><path fill="#ff9045" d="M 11.449219 5.53125 C 11.449219 5.878906 11.414062 6.21875 11.347656 6.558594 C 11.28125 6.898438 11.179688 7.226562 11.046875 7.546875 C 10.917969 7.863281 10.753906 8.167969 10.5625 8.457031 C 10.371094 8.742188 10.152344 9.007812 9.90625 9.253906 C 9.664062 9.496094 9.398438 9.714844 9.109375 9.90625 C 8.824219 10.097656 8.519531 10.261719 8.199219 10.394531 C 7.882812 10.527344 7.550781 10.625 7.214844 10.695312 C 6.875 10.761719 6.53125 10.792969 6.1875 10.792969 C 5.839844 10.792969 5.5 10.761719 5.160156 10.695312 C 4.820312 10.625 4.492188 10.527344 4.171875 10.394531 C 3.855469 10.261719 3.550781 10.097656 3.261719 9.90625 C 2.976562 9.714844 2.710938 9.496094 2.464844 9.253906 C 2.222656 9.007812 2.003906 8.742188 1.8125 8.457031 C 1.621094 8.167969 1.457031 7.863281 1.324219 7.546875 C 1.191406 7.226562 1.09375 6.898438 1.027344 6.558594 C 0.957031 6.21875 0.925781 5.878906 0.925781 5.53125 C 0.925781 5.1875 0.957031 4.84375 1.027344 4.503906 C 1.09375 4.167969 1.191406 3.835938 1.324219 3.519531 C 1.457031 3.199219 1.621094 2.894531 1.8125 2.609375 C 2.003906 2.320312 2.222656 2.054688 2.464844 1.8125 C 2.710938 1.566406 2.976562 1.347656 3.261719 1.15625 C 3.550781 0.964844 3.855469 0.800781 4.171875 0.671875 C 4.492188 0.539062 4.820312 0.4375 5.160156 0.371094 C 5.5 0.304688 5.839844 0.269531 6.1875 0.269531 C 6.53125 0.269531 6.875 0.304688 7.214844 0.371094 C 7.550781 0.4375 7.882812 0.539062 8.199219 0.671875 C 8.519531 0.800781 8.824219 0.964844 9.109375 1.15625 C 9.398438 1.347656 9.664062 1.566406 9.90625 1.8125 C 10.152344 2.054688 10.371094 2.320312 10.5625 2.609375 C 10.753906 2.894531 10.917969 3.199219 11.046875 3.519531 C 11.179688 3.835938 11.28125 4.167969 11.347656 4.503906 C 11.414062 4.84375 11.449219 5.1875 11.449219 5.53125 Z M 11.449219 5.53125 " fill-opacity="1" fill-rule="nonzero"/></g></g></g></g><g mask="url(#188b466cea)"><g transform="matrix(1, 0, 0, 1, 43, 196)"><g clip-path="url(#2b383e6265)"><g clip-path="url(#3ed02f7026)"><path fill="#bc1823" d="M 20.398438 10.1875 C 20.398438 10.847656 20.332031 11.5 20.207031 12.144531 C 20.078125 12.792969 19.886719 13.421875 19.632812 14.027344 C 19.382812 14.636719 19.074219 15.214844 18.707031 15.765625 C 18.339844 16.3125 17.925781 16.820312 17.457031 17.285156 C 16.992188 17.75 16.484375 18.167969 15.9375 18.535156 C 15.390625 18.898438 14.8125 19.207031 14.203125 19.460938 C 13.59375 19.710938 12.964844 19.902344 12.320312 20.03125 C 11.671875 20.160156 11.019531 20.226562 10.363281 20.226562 C 9.703125 20.226562 9.050781 20.160156 8.402344 20.03125 C 7.757812 19.902344 7.128906 19.710938 6.519531 19.460938 C 5.910156 19.207031 5.332031 18.898438 4.785156 18.535156 C 4.238281 18.167969 3.730469 17.75 3.265625 17.285156 C 2.796875 16.820312 2.382812 16.3125 2.015625 15.765625 C 1.652344 15.214844 1.339844 14.636719 1.089844 14.027344 C 0.835938 13.421875 0.648438 12.792969 0.519531 12.144531 C 0.390625 11.5 0.324219 10.847656 0.324219 10.1875 C 0.324219 9.527344 0.390625 8.875 0.519531 8.230469 C 0.648438 7.582031 0.835938 6.957031 1.089844 6.347656 C 1.339844 5.738281 1.652344 5.160156 2.015625 4.613281 C 2.382812 4.0625 2.796875 3.558594 3.265625 3.089844 C 3.730469 2.625 4.238281 2.210938 4.785156 1.84375 C 5.332031 1.476562 5.910156 1.167969 6.519531 0.914062 C 7.128906 0.664062 7.757812 0.472656 8.402344 0.34375 C 9.050781 0.214844 9.703125 0.152344 10.363281 0.152344 C 11.019531 0.152344 11.671875 0.214844 12.320312 0.34375 C 12.964844 0.472656 13.59375 0.664062 14.203125 0.914062 C 14.8125 1.167969 15.390625 1.476562 15.9375 1.84375 C 16.484375 2.210938 16.992188 2.625 17.457031 3.089844 C 17.925781 3.558594 18.339844 4.0625 18.707031 4.613281 C 19.074219 5.160156 19.382812 5.738281 19.632812 6.347656 C 19.886719 6.957031 20.078125 7.582031 20.207031 8.230469 C 20.332031 8.875 20.398438 9.527344 20.398438 10.1875 Z M 20.398438 10.1875 " fill-opacity="1" fill-rule="nonzero"/></g></g></g></g></g></g></svg>